<svg width="789" height="604" viewBox="0 0 789 604" fill="none" xmlns="http://www.w3.org/2000/svg">
<path fill-rule="evenodd" clip-rule="evenodd" d="M77 23C77 10.2974 87.2975 0 100 0H213.419C223.043 0 231.286 5.91058 234.716 14.2997C233.034 17.496 232.081 21.1367 232.081 25V129C232.081 132.079 232.686 135.016 233.784 137.7C229.933 145.014 222.258 150 213.419 150H100C87.2975 150 77 139.703 77 127V23ZM250.289 151.5C242.782 149.909 236.628 144.657 233.784 137.7C235.466 134.504 236.419 130.863 236.419 127V23C236.419 19.9211 235.814 16.9836 234.716 14.2997C238.567 6.98636 246.242 2 255.081 2H368.5C377.712 2 385.659 7.41568 389.331 15.2369C387.94 18.2005 387.162 21.5094 387.162 25V129C387.162 132.491 387.94 135.8 389.331 138.763C386.314 145.189 380.411 149.991 373.292 151.5C371.747 151.172 370.143 151 368.5 151H255.081C253.438 151 251.834 151.172 250.289 151.5ZM234.25 164.237C237.267 157.811 243.17 153.009 250.289 151.5C251.834 151.828 253.438 152 255.081 152H368.5C370.143 152 371.747 151.828 373.292 151.5C380.885 153.109 387.094 158.464 389.894 165.54C360.079 166.659 336.167 191.444 336.167 221.75V233H325C319.077 233 313.396 235.37 309.208 239.59C305.02 243.81 302.667 249.532 302.667 255.5V301H255.081C245.869 301 237.922 295.584 234.25 287.763C235.641 284.8 236.419 281.491 236.419 278V174C236.419 170.509 235.641 167.2 234.25 164.237ZM234.25 164.237C230.578 156.416 222.631 151 213.419 151H100C87.2975 151 77 161.297 77 174V278C77 290.703 87.2975 301 100 301H213.419C222.631 301 230.578 295.584 234.25 287.763C232.859 284.8 232.081 281.491 232.081 278V174C232.081 170.509 232.859 167.2 234.25 164.237ZM369.672 300.971C369.284 300.99 368.893 301 368.5 301H302.667V303H255.081C246.06 303 238.253 308.193 234.484 315.753C230.924 307.655 222.832 302 213.419 302H100C87.2975 302 77 312.297 77 325V429C77 441.703 87.2975 452 100 452H213.419C222.44 452 230.247 446.807 234.016 439.247C237.576 447.345 245.668 453 255.081 453H368.5C381.203 453 391.5 442.703 391.5 430V390.499H393.5V428C393.5 440.703 403.797 451 416.5 451H529.919C539.574 451 547.84 445.051 551.25 436.618C554.66 445.051 562.926 451 572.581 451H686C698.703 451 709 440.703 709 428V324C709 311.297 698.703 301 686 301H572.581C562.926 301 554.66 306.949 551.25 315.382C547.84 306.949 539.574 301 529.919 301H481.334V300H528.919C538.574 300 546.84 294.051 550.25 285.618C553.66 294.051 561.926 300 571.581 300H685C697.703 300 708 289.703 708 277V173C708 162.639 701.149 153.878 691.729 151C701.149 148.122 708 139.361 708 129V25C708 12.2975 697.703 2 685 2H571.581C558.879 2 548.581 12.2974 548.581 25V129C548.581 139.361 555.432 148.122 564.852 151C558.203 153.031 552.833 157.994 550.25 164.382C547.255 156.976 540.514 151.485 532.377 150.258C540.715 146.804 546.581 138.587 546.581 129V25C546.581 12.2975 536.284 2 523.581 2H410.162C400.95 2 393.003 7.41568 389.331 15.2369C390.722 18.2005 391.5 21.5094 391.5 25V129C391.5 132.491 390.722 135.8 389.331 138.763C392.535 145.586 398.992 150.579 406.704 151.742C400.641 154.253 395.885 159.283 393.741 165.527C393.163 165.509 392.583 165.5 392 165.5C391.295 165.5 390.593 165.513 389.894 165.54C390.93 168.158 391.5 171.013 391.5 174V188.004C373.26 188.274 358.5 203.311 358.5 221.75V233H391.5V278C391.5 278.002 391.5 278.004 391.5 278.005C385.758 278.135 380.278 280.489 376.208 284.59C372.02 288.809 369.667 294.532 369.667 300.5C369.667 300.657 369.668 300.814 369.672 300.971ZM369.809 303.037C369.376 303.012 368.939 303 368.5 303H302.667V368C302.667 373.967 305.02 379.69 309.208 383.909C313.396 388.129 319.077 390.499 325 390.499H391.5V345.5H393.5V390.499H459C464.924 390.499 470.604 388.129 474.792 383.909C478.981 379.69 481.334 373.967 481.334 368V301H416.5C415.767 301 415.041 301.034 414.326 301.101C414.331 300.902 414.334 300.701 414.334 300.5C414.334 300.323 414.332 300.147 414.327 299.971C414.716 299.99 415.107 300 415.5 300H481.334V255.5C481.334 249.532 478.981 243.81 474.792 239.59C470.604 235.37 464.924 233 459 233H447.834V221.75C447.834 191.321 423.726 166.457 393.741 165.527C392.937 167.87 392.5 170.384 392.5 173V188.004C392.334 188.001 392.167 188 392 188C391.833 188 391.666 188.001 391.5 188.004V233H392.5V277C392.5 277.337 392.507 277.672 392.522 278.006C392.348 278.002 392.174 278 392 278C391.833 278 391.667 278.002 391.5 278.005C391.497 290.313 381.828 300.361 369.672 300.971C369.686 301.668 369.732 302.357 369.809 303.037ZM392.5 233H425.5V221.75C425.5 203.311 410.74 188.274 392.5 188.004V233ZM392.522 278.006C398.256 278.141 403.727 280.494 407.792 284.59C411.857 288.685 414.193 294.195 414.327 299.971C402.503 299.377 393.031 289.853 392.522 278.006ZM414.326 301.101C402.643 302.197 393.5 312.031 393.5 324V345.5H403.167V319.883C409.65 316.074 414.113 309.148 414.326 301.101ZM369.809 303.037C381.902 303.715 391.5 313.737 391.5 326V345.5H380.834V319.883C374.876 316.393 370.624 310.261 369.809 303.037ZM406.704 151.742C409.414 150.619 412.385 150 415.5 150H528.919C530.094 150 531.249 150.088 532.377 150.258C529.667 151.381 526.696 152 523.581 152H410.162C408.987 152 407.832 151.912 406.704 151.742ZM564.852 151C566.98 150.35 569.24 150 571.581 150H685C687.341 150 689.601 150.35 691.729 151C689.601 151.65 687.341 152 685 152H571.581C569.24 152 566.98 151.65 564.852 151ZM550.25 164.382C549.174 167.044 548.581 169.953 548.581 173V277C548.581 280.047 549.174 282.956 550.25 285.618C551.326 282.956 551.919 280.047 551.919 277V173C551.919 169.953 551.326 167.044 550.25 164.382ZM551.25 315.382C550.174 318.044 549.581 320.953 549.581 324V428C549.581 431.047 550.174 433.956 551.25 436.618C552.326 433.956 552.919 431.047 552.919 428V324C552.919 320.953 552.326 318.044 551.25 315.382ZM234.016 439.247C232.772 436.418 232.081 433.289 232.081 430V326C232.081 322.318 232.946 318.838 234.484 315.753C235.728 318.582 236.419 321.711 236.419 325V429C236.419 432.682 235.554 436.162 234.016 439.247ZM77 477C77 464.297 87.2975 454 100 454H213.419C222.631 454 230.578 459.416 234.25 467.237C232.859 470.2 232.081 473.509 232.081 477V581C232.081 584.491 232.859 587.8 234.25 590.763C230.578 598.584 222.631 604 213.419 604H100C87.2975 604 77 593.703 77 581V477ZM234.25 590.763C237.922 598.584 245.869 604 255.081 604H368.5C381.203 604 391.5 593.703 391.5 581V477C391.5 464.297 381.203 454 368.5 454H255.081C245.869 454 237.922 459.416 234.25 467.237C235.641 470.2 236.419 473.509 236.419 477V581C236.419 584.491 235.641 587.8 234.25 590.763ZM392.5 477C392.5 464.297 402.797 454 415.5 454H528.919C537.758 454 545.433 458.986 549.284 466.3C548.186 468.984 547.581 471.921 547.581 475V579C547.581 582.863 548.534 586.504 550.216 589.7C546.786 598.089 538.543 604 528.919 604H415.5C402.797 604 392.5 593.703 392.5 581V477ZM550.216 589.7C554.067 597.014 561.742 602 570.581 602H684C696.703 602 707 591.703 707 579V475C707 462.297 696.703 452 684 452H570.581C560.957 452 552.714 457.911 549.284 466.3C550.966 469.496 551.919 473.137 551.919 477V581C551.919 584.079 551.314 587.016 550.216 589.7Z" fill="#57383B"/>
<path d="M223.667 93.2954C223.603 94.1978 223.441 95.0518 223.184 95.8574C222.926 96.6631 222.797 97.4688 222.797 98.2744C222.797 98.6611 222.829 99.1606 222.894 99.7729C222.958 100.385 222.99 101.046 222.99 101.755C222.99 102.979 222.7 104.075 222.12 105.042C221.54 106.009 220.799 106.911 219.896 107.749C218.994 108.587 217.979 109.409 216.851 110.214C215.755 110.988 214.66 111.793 213.564 112.631C212.791 113.244 212.146 113.856 211.63 114.468C211.115 115.081 210.519 115.628 209.842 116.112C209.165 116.595 208.311 116.982 207.28 117.272C206.249 117.594 204.814 117.755 202.978 117.755C201.979 117.755 200.947 117.675 199.884 117.514C198.853 117.385 197.821 117.224 196.79 117.03C195.759 116.837 194.76 116.66 193.793 116.499C192.858 116.37 191.988 116.305 191.183 116.305C190.506 116.305 189.861 116.37 189.249 116.499C188.637 116.627 188.024 116.692 187.412 116.692C187.154 116.692 186.703 116.579 186.059 116.354C185.414 116.16 184.721 115.87 183.98 115.483C183.239 115.129 182.498 114.694 181.756 114.178C181.015 113.63 180.403 113.018 179.919 112.341C179.468 111.729 179.178 111.084 179.049 110.408C178.953 109.699 178.743 109.022 178.421 108.377C177.97 107.572 177.374 106.798 176.632 106.057C175.923 105.316 175.295 104.43 174.747 103.398C174.264 102.464 173.845 101.336 173.49 100.015C173.136 98.6934 172.733 97.3882 172.282 96.0991C171.702 94.3911 171.122 92.8604 170.542 91.5068C169.994 90.1533 169.72 89.0093 169.72 88.0747C169.72 87.0112 169.865 85.8833 170.155 84.6909C170.445 83.4663 170.832 82.3384 171.315 81.3071C171.798 80.2437 172.346 79.3735 172.958 78.6968C173.603 78.02 174.264 77.6816 174.94 77.6816C175.295 77.6816 175.666 77.7461 176.052 77.875C176.439 78.0039 176.842 78.0684 177.261 78.0684C177.809 78.0039 178.26 77.8428 178.614 77.585C179.001 77.3271 179.404 77.1982 179.823 77.1982C180.242 77.1982 180.838 77.2788 181.611 77.4399C182.385 77.5688 183.174 77.7461 183.98 77.9717C184.818 78.1973 185.591 78.4229 186.3 78.6484C187.042 78.874 187.589 79.0835 187.944 79.2769C188.459 79.5347 189.007 79.9858 189.587 80.6304C190.167 81.2749 190.699 81.9839 191.183 82.7573C191.666 83.5308 192.069 84.3364 192.391 85.1743C192.713 86.0122 192.875 86.7534 192.875 87.3979C192.875 87.7524 192.858 88.123 192.826 88.5098C192.794 88.8643 192.778 89.2188 192.778 89.5732C192.778 90.2178 192.891 90.8784 193.116 91.5552C193.342 92.1997 193.535 92.9248 193.696 93.7305C193.825 94.6328 193.906 95.4868 193.938 96.2925C194.002 97.0981 194.083 97.8555 194.18 98.5645C194.276 99.2412 194.405 99.8857 194.566 100.498C194.76 101.11 195.082 101.69 195.533 102.238C196.178 103.076 197.08 103.753 198.24 104.269C199.4 104.752 200.544 104.994 201.672 104.994C202.381 104.994 202.945 104.881 203.364 104.655C203.815 104.43 204.202 104.156 204.524 103.833C204.847 103.511 205.153 103.189 205.443 102.867C205.765 102.512 206.136 102.206 206.555 101.948C207.199 101.562 207.812 101.271 208.392 101.078C208.972 100.853 209.487 100.579 209.938 100.256C210.39 99.9019 210.744 99.4346 211.002 98.8545C211.26 98.2744 211.389 97.4204 211.389 96.2925C211.389 95.3901 211.211 94.4395 210.857 93.4404C210.535 92.4092 210.325 91.3779 210.229 90.3467C210.132 89.4443 210.067 88.687 210.035 88.0747C210.003 87.4302 209.938 86.834 209.842 86.2861C209.777 85.7061 209.648 85.1421 209.455 84.5942C209.262 84.0142 208.923 83.3535 208.44 82.6123C208.311 82.4834 208.021 82.1611 207.57 81.6455C207.119 81.0977 206.587 80.5337 205.975 79.9536C205.395 79.3735 204.766 78.8579 204.089 78.4067C203.413 77.9233 202.784 77.6816 202.204 77.6816C201.946 77.6816 201.688 77.6978 201.431 77.73C201.205 77.7622 200.963 77.7783 200.706 77.7783C199.674 77.7783 198.611 77.5527 197.515 77.1016C196.452 76.6504 195.356 76.1025 194.228 75.458C193.1 74.7812 191.956 74.0723 190.796 73.3311C189.636 72.5898 188.476 71.9292 187.315 71.3491C186.349 70.8657 185.253 70.4146 184.028 69.9956C182.836 69.5767 181.708 69.1094 180.645 68.5938C179.581 68.0781 178.695 67.4819 177.986 66.8052C177.277 66.0962 176.922 65.2261 176.922 64.1948C176.922 64.0015 176.955 63.6147 177.019 63.0347C177.116 62.4546 177.229 61.7939 177.357 61.0527C177.486 60.2793 177.647 59.4575 177.841 58.5874C178.034 57.6851 178.26 56.8311 178.518 56.0254C178.775 55.1875 179.033 54.4302 179.291 53.7534C179.581 53.0767 179.887 52.5449 180.209 52.1582C180.661 51.6104 181.225 51.0786 181.901 50.563C182.61 50.0474 183.303 49.5962 183.98 49.2095C184.657 48.7905 185.253 48.4683 185.769 48.2427C186.316 47.9849 186.671 47.856 186.832 47.856C187.122 47.856 187.396 47.8882 187.654 47.9526C187.944 47.9849 188.234 48.001 188.524 48.001C189.136 48.001 189.652 47.9365 190.071 47.8076C190.522 47.6465 190.909 47.4531 191.231 47.2275C191.585 47.002 191.924 46.7925 192.246 46.5991C192.568 46.3735 192.939 46.1802 193.358 46.019C193.906 45.7935 194.566 45.6807 195.34 45.6807C196.146 45.6484 196.935 45.5518 197.708 45.3906C198.611 45.1973 199.739 44.9717 201.092 44.7139C202.478 44.4238 203.864 44.166 205.25 43.9404C206.667 43.6826 207.989 43.4731 209.213 43.312C210.438 43.1509 211.356 43.0864 211.969 43.1187C212.291 43.1187 212.629 43.1992 212.984 43.3604C213.371 43.5215 213.661 43.876 213.854 44.4238C214.273 44.7139 214.756 44.9233 215.304 45.0522C215.852 45.1812 216.303 45.3906 216.658 45.6807C217.141 46.0996 217.641 46.6475 218.156 47.3242C218.704 48.001 219.22 48.5811 219.703 49.0645C220.187 49.5479 220.605 49.9829 220.96 50.3696C221.347 50.7241 221.653 51.0786 221.878 51.4331C222.136 51.7554 222.313 52.1099 222.41 52.4966C222.539 52.8511 222.604 53.2861 222.604 53.8018C222.604 54.833 222.491 55.832 222.265 56.7988C222.04 57.7656 221.653 58.6357 221.105 59.4092C220.589 60.1504 219.88 60.7627 218.978 61.2461C218.108 61.6973 216.996 61.9229 215.643 61.9229C214.837 61.9229 213.967 61.8423 213.032 61.6812C212.098 61.4878 211.26 61.2461 210.519 60.9561C210.132 60.8271 209.745 60.6177 209.358 60.3276C208.972 60.0376 208.585 59.7476 208.198 59.4575C207.812 59.1353 207.409 58.8291 206.99 58.5391C206.571 58.249 206.12 58.0234 205.636 57.8623C205.153 57.7012 204.524 57.5562 203.751 57.4272C202.978 57.2661 202.172 57.1372 201.334 57.0405C200.528 56.9438 199.739 56.8633 198.965 56.7988C198.192 56.7344 197.547 56.7021 197.032 56.7021C196.355 56.7021 195.694 56.7505 195.05 56.8472C194.405 56.9116 193.825 57.0728 193.31 57.3306C192.826 57.5562 192.423 57.8784 192.101 58.2974C191.779 58.7163 191.618 59.2642 191.618 59.9409C191.618 60.3276 191.682 60.666 191.811 60.9561C191.972 61.2461 192.182 61.52 192.439 61.7778C192.729 62.0034 193.084 62.2451 193.503 62.5029C193.922 62.7607 194.405 63.0669 194.953 63.4214C195.437 63.7437 195.904 64.0981 196.355 64.4849C196.838 64.8716 197.306 65.2422 197.757 65.5967C198.24 65.9512 198.724 66.2896 199.207 66.6118C199.69 66.9341 200.19 67.1919 200.706 67.3853C201.318 67.5786 201.946 67.7075 202.591 67.772C203.268 67.8042 203.864 67.8687 204.379 67.9653C206.281 68.4165 208.053 69.0771 209.697 69.9473C211.373 70.7852 212.919 71.7681 214.337 72.896C215.755 74.0239 217.028 75.2485 218.156 76.5698C219.316 77.8589 220.332 79.1802 221.202 80.5337C221.621 81.2104 221.959 81.8228 222.217 82.3706C222.475 82.8862 222.668 83.418 222.797 83.9658C222.926 84.4814 223.006 85.0454 223.039 85.6577C223.071 86.27 223.087 87.0112 223.087 87.8813C223.087 88.8804 223.184 89.8472 223.377 90.7817C223.57 91.7163 223.667 92.5542 223.667 93.2954ZM274.424 84.7876C274.488 85.5288 274.537 86.2861 274.569 87.0596C274.601 87.8008 274.617 88.5742 274.617 89.3799C274.617 91.668 274.504 93.9883 274.279 96.3408C274.053 98.6611 273.795 100.917 273.505 103.108C273.409 103.817 273.28 104.542 273.119 105.284C272.99 105.993 272.925 106.621 272.925 107.169C272.925 108.361 273.038 109.521 273.264 110.649C273.489 111.745 273.602 112.76 273.602 113.695C273.602 113.888 273.473 114.323 273.215 115C272.958 115.677 272.539 116.37 271.958 117.079C271.411 117.788 270.686 118.416 269.783 118.964C268.913 119.544 267.85 119.834 266.593 119.834C265.143 119.834 264.16 119.415 263.644 118.577C263.161 117.739 262.919 116.676 262.919 115.387C262.919 114.484 263 113.518 263.161 112.486C263.322 111.423 263.499 110.343 263.692 109.248C262.951 109.409 262.21 109.715 261.469 110.166C260.76 110.617 260.083 111.036 259.438 111.423C258.021 112.261 256.603 113.147 255.185 114.082C253.799 115.016 252.284 115.87 250.641 116.644C248.997 117.417 247.192 118.062 245.227 118.577C243.293 119.093 241.069 119.351 238.556 119.351C238.491 119.351 238.233 119.351 237.782 119.351C237.363 119.383 236.864 119.383 236.284 119.351C235.704 119.318 235.091 119.238 234.447 119.109C233.834 118.98 233.287 118.771 232.803 118.48C232.094 117.771 231.401 116.885 230.725 115.822C230.08 114.791 229.5 113.775 228.984 112.776C228.501 111.745 228.114 110.843 227.824 110.069C227.534 109.296 227.389 108.829 227.389 108.667C227.325 108.506 227.292 108.361 227.292 108.232C227.292 108.071 227.292 107.91 227.292 107.749C227.292 107.072 227.341 106.379 227.438 105.67C227.534 104.929 227.647 104.236 227.776 103.592C227.905 102.915 228.018 102.351 228.114 101.9C228.211 101.417 228.259 101.094 228.259 100.933C228.259 100.127 228.195 99.354 228.066 98.6128C227.937 97.8394 227.873 97.0015 227.873 96.0991C227.873 95.6802 227.889 95.2451 227.921 94.7939C227.985 94.3105 228.098 93.811 228.259 93.2954C228.259 93.2632 228.34 93.0537 228.501 92.667C228.662 92.2803 228.839 91.8613 229.033 91.4102C229.258 90.959 229.468 90.5239 229.661 90.105C229.887 89.686 230.048 89.4443 230.145 89.3799C230.37 89.1865 230.676 89.0254 231.063 88.8965C231.45 88.7676 231.885 88.6387 232.368 88.5098C232.852 88.3809 233.335 88.252 233.818 88.123C234.334 87.9941 234.833 87.8169 235.317 87.5913C236.058 87.2368 236.719 86.7856 237.299 86.2378C237.911 85.6899 238.459 85.3193 238.942 85.126C239.265 84.9648 239.7 84.8359 240.248 84.7393C240.828 84.6426 241.424 84.4653 242.036 84.2075C242.455 84.0786 242.971 83.9014 243.583 83.6758C244.195 83.418 244.84 83.1924 245.517 82.999C246.226 82.7734 246.935 82.5801 247.644 82.4189C248.353 82.2256 249.029 82.0967 249.674 82.0322C249.964 82.0322 250.318 82.0806 250.737 82.1772C251.188 82.2739 251.72 82.3223 252.333 82.3223C252.784 82.3223 253.332 82.2256 253.976 82.0322C254.621 81.8389 255.394 81.7422 256.296 81.7422C257.199 81.7422 258.069 81.8066 258.907 81.9355C259.745 82.0645 260.389 82.1289 260.84 82.1289C261.195 82.1289 261.404 82.0322 261.469 81.8389C261.565 81.6133 261.614 81.3555 261.614 81.0654C261.614 80.582 261.517 80.0181 261.324 79.3735C261.13 78.729 260.905 78.1006 260.647 77.4883C260.389 76.876 260.147 76.3442 259.922 75.8931C259.696 75.4419 259.535 75.1519 259.438 75.0229C258.955 74.4106 258.407 73.9434 257.795 73.6211C257.215 73.2988 256.683 73.1377 256.2 73.1377C255.684 73.1377 255.168 73.2021 254.653 73.3311C254.169 73.46 253.622 73.5244 253.009 73.5244C252.558 73.5244 252.091 73.4922 251.607 73.4277C251.156 73.3633 250.705 73.3311 250.254 73.3311C249.158 73.3311 247.885 73.605 246.435 74.1528C245.017 74.7007 243.583 75.3291 242.133 76.0381C240.715 76.7471 239.361 77.4238 238.072 78.0684C236.815 78.6807 235.8 79.0835 235.027 79.2769C234.608 79.3735 234.173 79.4702 233.722 79.5669C233.271 79.6313 232.835 79.6636 232.417 79.6636C232.159 79.6636 231.788 79.5347 231.305 79.2769C230.854 78.9868 230.402 78.6323 229.951 78.2134C229.5 77.7944 229.097 77.3271 228.743 76.8115C228.42 76.2637 228.259 75.7319 228.259 75.2163C228.259 74.4429 228.469 73.8145 228.888 73.3311C229.307 72.8154 229.822 72.3804 230.435 72.0259C231.047 71.6714 231.708 71.3652 232.417 71.1074C233.158 70.8174 233.818 70.4951 234.398 70.1406C235.14 69.6895 236.01 69.1577 237.009 68.5454C238.008 67.9331 238.862 67.353 239.571 66.8052C240.312 66.1929 240.844 65.645 241.166 65.1616C241.488 64.646 241.875 64.2593 242.326 64.0015C242.777 63.7437 243.486 63.502 244.453 63.2764C245.42 63.0508 246.322 62.8091 247.16 62.5513C247.418 62.4546 247.772 62.3096 248.224 62.1162C248.707 61.9229 249.19 61.7456 249.674 61.5845C250.189 61.4233 250.673 61.2783 251.124 61.1494C251.607 61.0205 251.978 60.9561 252.236 60.9561H252.429C253.042 61.1816 253.734 61.3589 254.508 61.4878C255.281 61.5845 256.087 61.6812 256.925 61.7778C257.795 61.8745 258.649 61.9873 259.487 62.1162C260.357 62.2129 261.179 62.3579 261.952 62.5513C262.21 62.6157 262.452 62.7607 262.677 62.9863C262.903 63.1797 263.145 63.3247 263.402 63.4214C264.595 63.7759 265.594 64.1465 266.399 64.5332C267.205 64.8877 267.914 65.4678 268.526 66.2734C269.139 67.0469 269.703 68.1748 270.218 69.6572C270.766 71.1074 271.362 73.0894 272.007 75.603C272.136 76.1831 272.377 76.7148 272.732 77.1982C273.086 77.6816 273.344 78.165 273.505 78.6484C273.763 79.4541 273.957 80.437 274.085 81.5972C274.247 82.7251 274.359 83.7886 274.424 84.7876ZM262.822 97.6943C262.983 97.5332 263.08 97.1787 263.112 96.6309C263.177 96.0508 263.209 95.4062 263.209 94.6973C263.209 93.8594 263.193 93.1826 263.161 92.667C263.128 92.1191 263.064 91.7002 262.967 91.4102C262.871 91.1201 262.742 90.9268 262.581 90.8301C262.419 90.7012 262.21 90.6367 261.952 90.6367C261.759 90.6367 261.582 90.6528 261.42 90.6851C261.292 90.7173 261.163 90.7495 261.034 90.7817C260.905 90.8462 260.776 90.8945 260.647 90.9268C260.131 90.8623 259.648 90.8301 259.197 90.8301C258.778 90.8301 258.343 90.8301 257.892 90.8301C256.989 90.8301 256.151 90.8784 255.378 90.9751C254.637 91.0718 253.896 91.2007 253.154 91.3618C252.445 91.5229 251.736 91.7002 251.027 91.8936C250.318 92.0869 249.561 92.2642 248.755 92.4253C247.595 92.7153 246.532 92.9087 245.565 93.0054C244.598 93.1021 243.76 93.2954 243.051 93.5854C242.342 93.8755 241.794 94.3428 241.408 94.9873C241.021 95.5996 240.828 96.5664 240.828 97.8877C240.828 99.2412 241.182 100.16 241.891 100.643C242.6 101.094 243.631 101.32 244.985 101.32C245.404 101.32 245.887 101.255 246.435 101.126C246.983 100.965 247.563 100.788 248.175 100.595C248.82 100.401 249.464 100.208 250.109 100.015C250.786 99.7891 251.462 99.5957 252.139 99.4346C252.623 99.3379 253.138 99.2412 253.686 99.1445C254.266 99.0156 254.83 98.9028 255.378 98.8062C255.958 98.7095 256.49 98.6128 256.973 98.5161C257.489 98.4194 257.924 98.3389 258.278 98.2744C258.504 98.2422 258.858 98.21 259.342 98.1777C259.825 98.1133 260.309 98.0649 260.792 98.0327C261.275 97.9683 261.71 97.9199 262.097 97.8877C262.516 97.8232 262.758 97.7588 262.822 97.6943ZM344.275 103.012C344.082 103.656 343.711 104.188 343.163 104.607C342.647 104.994 342.003 105.3 341.229 105.525C340.488 105.751 339.667 105.912 338.764 106.009C337.894 106.073 337.024 106.105 336.154 106.105H335.042C334.945 106.105 334.671 106.122 334.22 106.154C333.769 106.186 333.318 106.202 332.867 106.202C331.997 106.202 331.352 106.041 330.933 105.719C330.514 105.396 330.208 104.994 330.015 104.51C329.821 103.995 329.676 103.447 329.58 102.867C329.515 102.287 329.386 101.739 329.193 101.223C329.128 101.062 328.983 100.788 328.758 100.401C328.564 100.015 328.339 99.6118 328.081 99.1929C327.823 98.7417 327.598 98.3066 327.404 97.8877C327.211 97.4365 327.114 97.0659 327.114 96.7759C327.114 96.4214 327.211 96.0186 327.404 95.5674C327.598 95.084 327.791 94.5845 327.984 94.0688C328.21 93.5532 328.419 93.0376 328.613 92.522C328.806 92.0063 328.903 91.5391 328.903 91.1201C328.903 90.6367 328.854 90.0244 328.758 89.2832C328.661 88.542 328.613 87.9458 328.613 87.4946C328.613 86.3989 328.661 85.3354 328.758 84.3042C328.854 83.2407 328.903 82.29 328.903 81.4521C328.903 80.4531 328.726 79.6475 328.371 79.0352C328.049 78.3906 327.34 78.0684 326.244 78.0684C324.987 78.0684 323.908 78.3906 323.005 79.0352C322.135 79.6797 321.426 80.4209 320.878 81.2588C320.331 82.0645 319.928 82.8379 319.67 83.5791C319.444 84.3203 319.332 84.7876 319.332 84.981C319.332 85.6899 319.412 86.4634 319.573 87.3013C319.734 88.1392 319.928 89.0254 320.153 89.96C320.379 90.8945 320.604 91.8774 320.83 92.9087C321.056 93.9077 321.217 94.939 321.313 96.0024C321.475 97.8071 321.587 99.6924 321.652 101.658C321.749 103.592 321.797 105.332 321.797 106.879C321.797 108.007 321.604 109.086 321.217 110.118C320.83 111.117 320.121 111.922 319.09 112.535C318.703 112.792 318.22 112.938 317.64 112.97C317.06 112.97 316.528 113.018 316.044 113.115C315.754 113.179 315.319 113.308 314.739 113.501C314.159 113.663 313.515 113.824 312.806 113.985C312.097 114.146 311.355 114.291 310.582 114.42C309.809 114.549 309.083 114.613 308.407 114.613C307.666 114.613 307.102 114.549 306.715 114.42C306.328 114.291 306.022 114.098 305.796 113.84C305.571 113.582 305.361 113.276 305.168 112.921C305.007 112.535 304.765 112.1 304.443 111.616C304.153 111.197 303.863 110.843 303.573 110.553C303.283 110.23 303.009 109.94 302.751 109.683C302.525 109.393 302.332 109.086 302.171 108.764C302.042 108.41 301.978 107.975 301.978 107.459C301.978 106.718 302.09 106.009 302.316 105.332C302.542 104.655 302.654 103.914 302.654 103.108C302.654 102.367 302.622 101.594 302.558 100.788C302.493 99.9502 302.413 99.1123 302.316 98.2744C302.219 97.4365 302.139 96.6147 302.074 95.8091C302.01 95.0034 301.978 94.2461 301.978 93.5371C301.978 93.2793 301.994 92.9248 302.026 92.4736C302.058 91.9902 302.074 91.4424 302.074 90.8301C302.074 89.4766 301.961 88.4614 301.736 87.7847C301.51 87.1079 300.93 86.7695 299.996 86.7695C299.577 86.7695 299.125 86.834 298.642 86.9629C298.159 87.0918 297.675 87.2529 297.192 87.4463C296.741 87.6074 296.306 87.7847 295.887 87.978C295.5 88.1392 295.194 88.2681 294.968 88.3647C294.453 88.5903 293.905 88.832 293.325 89.0898C292.745 89.3477 292.213 89.6699 291.729 90.0566C291.246 90.4111 290.843 90.8784 290.521 91.4585C290.231 92.0063 290.086 92.6992 290.086 93.5371C290.086 93.9561 290.15 94.4072 290.279 94.8906C290.408 95.374 290.553 95.8735 290.714 96.3892C290.908 96.9048 291.069 97.4204 291.198 97.936C291.327 98.4517 291.391 98.9512 291.391 99.4346C291.391 99.6602 291.375 99.8696 291.343 100.063C291.311 100.256 291.294 100.45 291.294 100.643C291.294 101.191 291.391 101.723 291.584 102.238C291.778 102.722 291.987 103.189 292.213 103.64C292.471 104.091 292.696 104.526 292.89 104.945C293.083 105.332 293.18 105.687 293.18 106.009C293.18 107.717 293.147 109.248 293.083 110.601C293.051 111.922 292.857 113.05 292.503 113.985C292.181 114.887 291.665 115.58 290.956 116.063C290.247 116.547 289.232 116.789 287.911 116.789C287.588 116.789 287.089 116.724 286.412 116.595C285.735 116.499 285.01 116.354 284.237 116.16C283.496 115.999 282.803 115.79 282.158 115.532C281.546 115.274 281.127 115 280.901 114.71C280.805 114.517 280.692 114.194 280.563 113.743C280.466 113.26 280.354 112.712 280.225 112.1C280.128 111.487 280.047 110.843 279.983 110.166C279.918 109.489 279.886 108.829 279.886 108.184C279.886 107.443 279.999 106.847 280.225 106.396C280.482 105.912 280.611 105.413 280.611 104.897C280.611 104.51 280.579 104.059 280.515 103.543C280.482 102.996 280.434 102.432 280.37 101.852C280.337 101.271 280.305 100.691 280.273 100.111C280.241 99.5312 280.225 98.9834 280.225 98.4678C280.225 98.1455 280.289 97.6138 280.418 96.8726C280.547 96.1313 280.692 95.2773 280.853 94.3105C281.014 93.3438 281.159 92.3286 281.288 91.2651C281.417 90.1694 281.481 89.106 281.481 88.0747C281.481 86.0767 281.417 84.1592 281.288 82.3223C281.159 80.4854 281.095 78.6807 281.095 76.9082C281.095 76.0059 281.095 75.0874 281.095 74.1528C281.127 73.2183 281.256 72.3643 281.481 71.5908C281.739 70.8174 282.142 70.189 282.69 69.7056C283.27 69.2222 284.092 68.9805 285.155 68.9805C285.961 68.9805 286.67 69.0771 287.282 69.2705C287.927 69.4316 288.458 69.77 288.877 70.2856C289.329 70.8013 289.651 71.5103 289.844 72.4126C290.07 73.2827 290.183 74.4429 290.183 75.8931C290.183 76.731 290.118 77.5527 289.989 78.3584C289.86 79.1318 289.796 80.0342 289.796 81.0654C291.149 80.8721 292.39 80.6143 293.518 80.292C294.646 79.9375 295.742 79.5508 296.805 79.1318C297.869 78.6807 298.948 78.2295 300.044 77.7783C301.14 77.2949 302.316 76.8599 303.573 76.4731C304.411 76.2153 305.216 75.9575 305.99 75.6997C306.795 75.4419 307.569 75.313 308.31 75.313C309.019 75.313 309.647 75.4419 310.195 75.6997C310.775 75.9253 311.291 76.1831 311.742 76.4731C312.226 76.731 312.645 76.9888 312.999 77.2466C313.386 77.4722 313.772 77.585 314.159 77.585C314.578 77.585 314.933 77.4238 315.223 77.1016C315.545 76.7793 315.835 76.3926 316.093 75.9414C316.351 75.458 316.625 74.9424 316.915 74.3945C317.205 73.8145 317.543 73.2988 317.93 72.8477C318.349 72.3643 318.832 71.9614 319.38 71.6392C319.96 71.3169 320.669 71.1558 321.507 71.1558C322.055 71.1558 322.619 71.1719 323.199 71.2041C323.811 71.2363 324.391 71.2524 324.939 71.2524C325.841 71.2524 326.824 71.1719 327.888 71.0107C328.983 70.8496 330.047 70.6724 331.078 70.479C332.109 70.2534 333.044 70.0601 333.882 69.8989C334.752 69.7378 335.38 69.6572 335.767 69.6572C336.154 69.6572 336.637 69.77 337.217 69.9956C337.797 70.2212 338.394 70.6724 339.006 71.3491C339.65 71.9937 340.279 72.896 340.891 74.0562C341.536 75.1841 342.1 76.6826 342.583 78.5518C343.099 80.3887 343.501 82.6123 343.792 85.2227C344.114 87.833 344.275 90.9268 344.275 94.5039C344.275 94.8906 344.227 95.2612 344.13 95.6157C344.065 95.938 343.985 96.2603 343.888 96.5825C343.792 96.9048 343.695 97.2271 343.598 97.5493C343.534 97.8716 343.518 98.1777 343.55 98.4678C343.55 99.0801 343.663 99.8052 343.888 100.643C344.146 101.481 344.275 102.174 344.275 102.722V103.012ZM390.246 69.3672C390.182 69.8184 390.037 70.2212 389.811 70.5757C389.585 70.9302 389.424 71.3491 389.328 71.8325C389.134 72.4448 389.054 73.041 389.086 73.6211C389.15 74.1689 389.102 74.604 388.941 74.9263C388.748 75.5063 388.377 76.0703 387.829 76.6182C387.281 77.166 386.862 77.8105 386.572 78.5518C386.411 78.874 386.314 79.2607 386.282 79.7119C386.25 80.1631 386.153 80.6143 385.992 81.0654C385.831 81.3555 385.638 81.6455 385.412 81.9355C385.219 82.2256 385.074 82.5156 384.977 82.8057C384.88 83.2246 384.848 83.6919 384.88 84.2075C384.913 84.7231 384.848 85.1904 384.687 85.6094C384.494 86.1572 384.22 86.6729 383.865 87.1562C383.511 87.6074 383.285 88.1069 383.188 88.6548C383.027 89.2671 382.963 89.9277 382.995 90.6367C383.027 91.3135 382.995 91.9741 382.898 92.6187C382.834 92.9731 382.689 93.3438 382.463 93.7305C382.238 94.1172 382.012 94.5039 381.787 94.8906C381.593 95.2773 381.4 95.6641 381.207 96.0508C381.045 96.4375 380.981 96.8081 381.013 97.1626C381.013 97.4204 381.029 97.6782 381.062 97.936C381.094 98.1616 381.11 98.3711 381.11 98.5645C381.11 99.1123 380.949 99.6602 380.626 100.208C380.336 100.756 379.998 101.304 379.611 101.852C379.257 102.399 378.918 102.947 378.596 103.495C378.306 104.043 378.161 104.607 378.161 105.187C378.161 105.606 378.193 105.977 378.258 106.299C378.322 106.589 378.354 106.879 378.354 107.169C378.354 107.491 378.226 107.975 377.968 108.619C377.742 109.231 377.275 109.86 376.566 110.504C375.857 111.117 374.842 111.665 373.521 112.148C372.231 112.599 370.54 112.825 368.445 112.825C366.801 112.825 365.625 112.599 364.916 112.148C364.207 111.697 363.708 111.068 363.417 110.263C363.127 109.425 362.886 108.442 362.692 107.314C362.499 106.186 362.08 104.945 361.436 103.592C361.081 102.883 360.678 102.303 360.227 101.852C359.776 101.368 359.325 100.949 358.874 100.595C358.455 100.24 358.052 99.9019 357.665 99.5796C357.311 99.2573 357.037 98.8867 356.843 98.4678C356.747 98.2744 356.666 98.0166 356.602 97.6943C356.569 97.3721 356.521 97.0176 356.457 96.6309C356.424 96.2441 356.36 95.8413 356.263 95.4224C356.199 95.0034 356.102 94.6006 355.973 94.2139C355.683 93.5371 355.345 92.8604 354.958 92.1836C354.571 91.5068 354.185 90.8623 353.798 90.25C353.411 89.6055 353.041 89.0093 352.686 88.4614C352.364 87.8813 352.138 87.3496 352.009 86.8662C351.816 86.3184 351.719 85.7383 351.719 85.126C351.719 84.4814 351.623 83.8208 351.429 83.144C351.075 82.0161 350.575 80.8237 349.931 79.5669C349.286 78.2778 348.642 76.9565 347.997 75.603C347.385 74.2495 346.853 72.896 346.402 71.5425C345.951 70.1567 345.741 68.8032 345.773 67.4819C345.773 66.7729 345.886 66.1123 346.112 65.5C346.337 64.8877 346.756 64.356 347.369 63.9048C347.723 63.647 348.319 63.4858 349.157 63.4214C350.027 63.3247 350.978 63.0991 352.009 62.7446C353.041 62.4224 353.959 62.0356 354.765 61.5845C355.603 61.1011 356.376 60.8594 357.085 60.8594C358.696 60.8594 359.889 61.0205 360.662 61.3428C361.468 61.665 362.064 62.1484 362.451 62.793C362.837 63.4053 363.144 64.1948 363.369 65.1616C363.627 66.0962 363.998 67.1919 364.481 68.4487C364.739 68.9966 365.045 69.5605 365.399 70.1406C365.786 70.7207 366.108 71.3813 366.366 72.1226C366.56 72.8315 366.688 73.5889 366.753 74.3945C366.817 75.2002 366.979 75.9897 367.236 76.7632C367.688 78.1489 368.155 79.3735 368.638 80.437C369.122 81.4683 369.573 82.4834 369.992 83.4824C370.443 84.4814 370.862 85.5288 371.249 86.6245C371.635 87.7202 371.958 89.0254 372.215 90.54C372.989 89.4121 373.617 88.1553 374.101 86.7695C374.616 85.3516 375.083 83.9014 375.502 82.4189C375.954 80.9043 376.405 79.4058 376.856 77.9233C377.307 76.4409 377.871 75.0391 378.548 73.7178C378.806 73.2666 379.096 72.8477 379.418 72.4609C379.74 72.042 379.982 71.6392 380.143 71.2524C380.369 70.5112 380.498 69.6572 380.53 68.6904C380.562 67.6914 380.675 66.7568 380.868 65.8867C381.094 65.0166 381.48 64.2754 382.028 63.6631C382.608 63.0508 383.559 62.7446 384.88 62.7446C385.654 62.7446 386.363 62.9058 387.007 63.228C387.652 63.5181 388.216 63.9209 388.699 64.4365C389.183 64.9521 389.553 65.5645 389.811 66.2734C390.101 66.9824 390.246 67.7397 390.246 68.5454V69.3672ZM406.875 58.6841C406.617 59.3608 406.118 59.9248 405.376 60.376C404.635 60.7949 403.765 61.1333 402.766 61.3911C401.799 61.6489 400.768 61.8423 399.672 61.9712C398.577 62.0679 397.545 62.1162 396.579 62.1162C394.903 62.1162 393.63 61.6973 392.76 60.8594C391.89 60.0215 391.455 58.4585 391.455 56.1704C391.455 55.2681 391.583 54.4302 391.841 53.6567C392.131 52.8833 392.421 52.1743 392.711 51.5298C393.034 50.8853 393.324 50.3213 393.582 49.8379C393.872 49.3545 394.017 48.9355 394.017 48.5811C394.403 48.291 394.935 48.0332 395.612 47.8076C396.321 47.5498 397.03 47.3403 397.739 47.1792C398.448 46.9858 399.092 46.8408 399.672 46.7441C400.252 46.6475 400.639 46.5991 400.833 46.5991C402.476 46.5991 403.83 46.8892 404.893 47.4692C405.957 48.0493 406.488 48.71 406.488 49.4512C406.488 49.8057 406.456 50.1924 406.392 50.6113C406.327 50.998 406.295 51.3364 406.295 51.6265C406.359 52.4644 406.521 53.3989 406.778 54.4302C407.036 55.4292 407.165 56.3477 407.165 57.1855C407.165 57.7656 407.068 58.2651 406.875 58.6841ZM409.679 111.616C409.421 112.003 408.889 112.422 408.083 112.873C407.31 113.292 406.424 113.695 405.425 114.082C404.426 114.436 403.411 114.726 402.379 114.952C401.38 115.177 400.542 115.29 399.866 115.29C398.609 115.161 397.545 114.871 396.675 114.42C395.805 113.969 395.096 113.356 394.548 112.583C394 111.81 393.598 110.907 393.34 109.876C393.082 108.845 392.905 107.685 392.808 106.396C392.808 105.751 392.905 105.106 393.098 104.462C393.324 103.785 393.437 103.044 393.437 102.238C393.437 101.336 393.372 100.434 393.243 99.5312C393.114 98.5967 393.05 97.6782 393.05 96.7759C393.05 96.0347 393.066 95.084 393.098 93.9238C393.163 92.7637 393.243 91.5068 393.34 90.1533C393.437 88.7998 393.549 87.4141 393.678 85.9961C393.839 84.5781 394 83.2407 394.162 81.9839C394.323 80.7271 394.5 79.6152 394.693 78.6484C394.887 77.6494 395.096 76.9243 395.322 76.4731C395.87 75.3452 396.562 74.5234 397.4 74.0078C398.238 73.4922 399.157 73.2344 400.156 73.2344C401.445 73.2344 402.524 73.4922 403.395 74.0078C404.265 74.5234 404.958 75.2646 405.473 76.2314C406.021 77.1982 406.408 78.3745 406.633 79.7603C406.859 81.1138 406.972 82.6284 406.972 84.3042C406.972 85.0454 406.939 85.7705 406.875 86.4795C406.811 87.1885 406.778 87.8813 406.778 88.5581C406.778 89.9116 406.907 91.249 407.165 92.5703C407.455 93.8916 407.761 95.1646 408.083 96.3892C408.438 97.6138 408.76 98.79 409.05 99.918C409.34 101.046 409.485 102.077 409.485 103.012C409.485 103.302 409.469 103.64 409.437 104.027C409.405 104.381 409.389 104.704 409.389 104.994C409.389 106.186 409.501 107.169 409.727 107.942C409.953 108.684 410.065 109.36 410.065 109.973C410.065 110.553 409.937 111.101 409.679 111.616ZM465.656 104.704C465.753 105.993 465.882 107.185 466.043 108.281C466.236 109.376 466.333 110.392 466.333 111.326C466.333 112.1 466.204 112.857 465.946 113.598C465.721 114.339 465.302 114.984 464.689 115.532C464.109 116.112 463.32 116.579 462.321 116.934C461.354 117.288 460.129 117.465 458.647 117.465C456.649 117.465 455.07 117.353 453.91 117.127C452.782 116.901 451.944 116.515 451.396 115.967C450.848 115.419 450.51 114.71 450.381 113.84C450.252 112.97 450.188 111.874 450.188 110.553C450.188 110.005 450.204 109.441 450.236 108.861C450.3 108.281 450.365 107.685 450.429 107.072C449.172 107.427 447.867 107.749 446.514 108.039C445.192 108.297 443.613 108.603 441.776 108.958C441.132 109.054 440.52 109.28 439.939 109.634C439.359 109.989 438.795 110.166 438.248 110.166C437.893 110.166 437.506 110.118 437.087 110.021C436.701 109.924 436.33 109.876 435.976 109.876C435.138 109.876 434.268 110.021 433.365 110.311C432.495 110.601 431.738 110.746 431.093 110.746C430.513 110.746 429.853 110.601 429.111 110.311C428.402 110.021 427.548 109.876 426.549 109.876H424.857C423.568 109.876 422.295 109.586 421.039 109.006C419.782 108.426 418.654 107.781 417.655 107.072C416.656 106.331 415.834 105.638 415.189 104.994C414.577 104.317 414.271 103.898 414.271 103.737C414.207 103.64 414.142 103.366 414.078 102.915C414.013 102.464 413.949 101.98 413.884 101.465C413.852 100.949 413.804 100.466 413.739 100.015C413.707 99.5635 413.691 99.2734 413.691 99.1445C413.626 98.6611 413.594 98.1777 413.594 97.6943C413.594 97.2109 413.594 96.7437 413.594 96.2925C413.594 95.3257 413.626 94.4072 413.691 93.5371C413.755 92.6348 413.836 91.7324 413.933 90.8301C414.029 89.9277 414.11 89.0093 414.174 88.0747C414.239 87.1401 414.271 86.1572 414.271 85.126C414.271 84.6104 414.255 84.0947 414.223 83.5791C414.19 83.0312 414.174 82.4834 414.174 81.9355C414.174 81.4844 414.207 81.1138 414.271 80.8237C414.368 80.5015 414.464 80.2114 414.561 79.9536C414.658 79.6958 414.754 79.4541 414.851 79.2285C414.98 78.9707 415.077 78.6807 415.141 78.3584C415.302 77.9717 415.351 77.5366 415.286 77.0532C415.254 76.5376 415.351 76.0542 415.576 75.603C415.641 75.3452 415.77 75.0874 415.963 74.8296C416.188 74.5396 416.43 74.2334 416.688 73.9111C416.978 73.5889 417.252 73.2666 417.51 72.9443C417.8 72.6221 418.042 72.2837 418.235 71.9292C418.525 71.4136 418.75 70.9141 418.912 70.4307C419.105 69.915 419.282 69.4478 419.443 69.0288C419.604 68.5776 419.782 68.1909 419.975 67.8687C420.168 67.5142 420.41 67.2563 420.7 67.0952C420.894 66.9663 421.216 66.8535 421.667 66.7568C422.118 66.6602 422.618 66.5635 423.166 66.4668C423.713 66.3379 424.277 66.2251 424.857 66.1284C425.47 66.0317 426.034 65.9189 426.549 65.79C428 65.4355 429.756 65.1455 431.818 64.9199C433.913 64.6621 435.959 64.5332 437.958 64.5332C439.375 64.5332 440.632 64.6782 441.728 64.9683C442.824 65.2583 443.839 65.5967 444.773 65.9834C445.74 66.3379 446.659 66.7085 447.529 67.0952C448.431 67.4819 449.398 67.772 450.429 67.9653C450.59 66.7407 450.703 65.2583 450.768 63.5181C450.864 61.7778 450.913 59.9893 450.913 58.1523C450.913 57.1855 450.864 56.2188 450.768 55.252C450.703 54.2852 450.606 53.3506 450.478 52.4482C450.381 51.5137 450.284 50.6597 450.188 49.8862C450.123 49.0806 450.091 48.3716 450.091 47.7593C450.091 47.3403 450.204 46.8247 450.429 46.2124C450.655 45.5679 450.961 44.9717 451.348 44.4238C451.767 43.8438 452.25 43.3604 452.798 42.9736C453.378 42.5547 454.006 42.3452 454.683 42.3452C455.199 42.3452 455.747 42.458 456.327 42.6836C456.907 42.877 457.438 43.1348 457.922 43.457C458.405 43.7471 458.808 44.1016 459.13 44.5205C459.453 44.9072 459.614 45.2939 459.614 45.6807C459.614 46.0996 459.549 46.5186 459.42 46.9375C459.292 47.3564 459.227 47.8398 459.227 48.3877C459.292 48.8711 459.469 49.4028 459.759 49.9829C460.081 50.563 460.291 51.1431 460.387 51.7231C460.581 52.4644 460.677 53.4795 460.677 54.7686C460.709 56.0576 460.726 57.4917 460.726 59.0708C460.758 60.6177 460.806 62.2451 460.871 63.9531C460.935 65.6611 461.112 67.3047 461.402 68.8838C461.499 69.4639 461.66 69.9795 461.886 70.4307C462.144 70.8496 462.401 71.2847 462.659 71.7358C462.949 72.1548 463.191 72.6221 463.384 73.1377C463.578 73.6211 463.674 74.2173 463.674 74.9263C463.674 75.5063 463.642 76.1348 463.578 76.8115C463.513 77.4561 463.481 78.1812 463.481 78.9868C463.578 80.856 463.707 82.854 463.868 84.981C464.029 87.0757 464.206 89.2349 464.399 91.4585C464.625 93.6821 464.834 95.9219 465.028 98.1777C465.253 100.401 465.463 102.577 465.656 104.704ZM451.299 80.8237C451.138 80.6304 450.8 80.5176 450.284 80.4854C449.801 80.4209 449.221 80.3887 448.544 80.3887C447.867 80.3564 447.126 80.3242 446.32 80.292C445.515 80.2275 444.725 80.1147 443.952 79.9536C443.5 79.8569 443.13 79.7441 442.84 79.6152C442.582 79.4863 442.34 79.3735 442.115 79.2769C441.889 79.1479 441.647 79.0513 441.39 78.9868C441.132 78.8901 440.81 78.8418 440.423 78.8418C439.198 78.8418 438.006 78.9224 436.846 79.0835C435.718 79.2124 434.832 79.5024 434.187 79.9536C433.865 80.2114 433.542 80.6948 433.22 81.4038C432.93 82.1128 432.672 82.9668 432.447 83.9658C432.221 84.9648 432.044 86.0283 431.915 87.1562C431.786 88.2842 431.722 89.3799 431.722 90.4434C431.722 92.5381 431.963 94.0205 432.447 94.8906C432.962 95.7607 433.897 96.1958 435.25 96.1958C435.863 96.1958 436.507 96.1313 437.184 96.0024C437.861 95.8413 438.521 95.6802 439.166 95.519C439.843 95.3257 440.455 95.1484 441.003 94.9873C441.551 94.7939 442.018 94.665 442.405 94.6006C442.759 94.5684 443.388 94.5039 444.29 94.4072C445.192 94.2783 446.111 94.1494 447.045 94.0205C448.012 93.8594 448.882 93.6982 449.656 93.5371C450.429 93.376 450.88 93.1987 451.009 93.0054C451.106 92.9087 451.17 92.6831 451.203 92.3286C451.267 91.9741 451.299 91.5713 451.299 91.1201C451.299 90.7012 451.283 90.25 451.251 89.7666C451.219 89.251 451.187 88.7837 451.154 88.3647C451.122 87.9136 451.09 87.5269 451.058 87.2046C451.025 86.8823 451.009 86.6729 451.009 86.5762C451.009 86.5439 451.042 86.3828 451.106 86.0928C451.17 85.8027 451.235 85.4482 451.299 85.0293C451.364 84.6104 451.428 84.1592 451.493 83.6758C451.557 83.1924 451.589 82.7412 451.589 82.3223C451.589 81.6777 451.493 81.1782 451.299 80.8237ZM516.993 104.607C516.8 105.477 516.236 106.25 515.301 106.927C514.399 107.572 513.287 108.12 511.966 108.571C510.677 108.99 509.259 109.312 507.712 109.538C506.165 109.763 504.667 109.876 503.216 109.876C502.121 109.876 501.25 109.65 500.606 109.199C499.994 108.748 499.526 108.12 499.204 107.314C498.882 106.476 498.672 105.477 498.576 104.317C498.511 103.125 498.479 101.803 498.479 100.353C498.479 98.8062 498.511 97.2593 498.576 95.7124C498.64 94.1655 498.672 92.7476 498.672 91.4585C498.672 91.0073 498.624 90.5078 498.527 89.96C498.431 89.3799 498.318 88.7998 498.189 88.2197C498.092 87.6396 497.996 87.1079 497.899 86.6245C497.802 86.1089 497.754 85.6738 497.754 85.3193C497.754 84.8682 497.802 84.3525 497.899 83.7725C497.996 83.1602 498.044 82.5801 498.044 82.0322C498.044 81.2266 497.851 80.5981 497.464 80.147C497.077 79.6958 496.417 79.4702 495.482 79.4702C494.934 79.4702 494.37 79.5508 493.79 79.7119C493.242 79.8408 492.694 80.0181 492.146 80.2437C491.631 80.437 491.164 80.6465 490.745 80.8721C490.326 81.0654 489.987 81.2266 489.729 81.3555C489.053 81.6455 488.392 81.9517 487.748 82.2739C487.135 82.5962 486.587 82.9507 486.104 83.3374C485.621 83.6919 485.234 84.0947 484.944 84.5459C484.654 84.9648 484.509 85.4482 484.509 85.9961C484.509 86.6406 484.589 87.4302 484.75 88.3647C484.944 89.2671 485.089 90.1855 485.186 91.1201C485.282 92.1514 485.314 93.1665 485.282 94.1655C485.25 95.1646 485.314 96.0669 485.476 96.8726C485.604 97.5815 485.733 98.1938 485.862 98.7095C485.991 99.2251 486.104 99.7246 486.201 100.208C486.33 100.659 486.426 101.126 486.491 101.61C486.555 102.093 486.587 102.657 486.587 103.302C486.587 103.882 486.636 104.43 486.732 104.945C486.861 105.461 486.99 105.993 487.119 106.541C487.28 107.088 487.425 107.652 487.554 108.232C487.683 108.812 487.748 109.457 487.748 110.166C487.748 111.52 487.393 112.567 486.684 113.308C486.007 114.049 485.089 114.597 483.929 114.952C482.801 115.306 481.496 115.516 480.013 115.58C478.531 115.645 477.016 115.677 475.469 115.677C474.696 115.677 474.1 115.596 473.681 115.435C473.294 115.274 473.004 115 472.811 114.613C472.617 114.227 472.504 113.711 472.472 113.066C472.44 112.39 472.424 111.552 472.424 110.553C472.424 109.812 472.44 109.054 472.472 108.281C472.537 107.475 472.601 106.718 472.666 106.009C472.73 105.3 472.794 104.655 472.859 104.075C472.923 103.495 472.972 103.044 473.004 102.722C473.036 102.013 473.084 101.159 473.149 100.16C473.246 99.1606 473.31 98.1455 473.342 97.1143C473.407 96.0508 473.455 95.0518 473.487 94.1172C473.552 93.1504 473.584 92.3608 473.584 91.7485C473.584 91.3296 473.375 90.9912 472.956 90.7334C472.537 90.4434 472.069 90.1372 471.554 89.8149C471.07 89.4604 470.619 89.0415 470.2 88.5581C469.781 88.0425 469.572 87.3496 469.572 86.4795C469.572 85.7061 469.685 85.0938 469.91 84.6426C470.136 84.1914 470.41 83.853 470.732 83.6274C471.086 83.3696 471.457 83.1763 471.844 83.0474C472.23 82.8862 472.585 82.709 472.907 82.5156C473.262 82.3223 473.552 82.0645 473.777 81.7422C474.003 81.3877 474.116 80.8882 474.116 80.2437C474.116 79.1479 473.955 77.9395 473.632 76.6182C473.342 75.2969 473.197 73.8306 473.197 72.2192C473.197 70.6724 473.262 69.0933 473.391 67.4819C473.52 65.8706 473.584 64.2915 473.584 62.7446C473.584 61.6167 473.471 60.4565 473.246 59.2642C473.02 58.0718 472.907 56.9761 472.907 55.9771C472.907 55.4937 473.02 54.9458 473.246 54.3335C473.471 53.7212 473.793 53.1411 474.212 52.5933C474.631 52.0132 475.147 51.5298 475.759 51.1431C476.372 50.7563 477.081 50.563 477.886 50.563C478.627 50.563 479.256 50.7886 479.771 51.2397C480.287 51.6587 480.706 52.2227 481.028 52.9316C481.383 53.6084 481.641 54.3979 481.802 55.3003C481.995 56.1704 482.14 57.0728 482.237 58.0073C482.366 58.9097 482.446 59.812 482.479 60.7144C482.543 61.5845 482.624 62.3579 482.72 63.0347C482.849 64.0659 482.962 65.2905 483.059 66.7085C483.188 68.0942 483.316 69.4316 483.445 70.7207C483.606 71.9775 483.8 73.0571 484.025 73.9595C484.251 74.8618 484.541 75.313 484.896 75.313C485.218 75.313 485.637 75.168 486.152 74.8779C486.7 74.5557 487.264 74.2012 487.844 73.8145C488.424 73.4277 489.004 73.041 489.584 72.6543C490.165 72.2676 490.648 71.9937 491.035 71.8325C492.066 71.3813 493.323 70.9946 494.805 70.6724C496.288 70.3179 498.092 70.1406 500.219 70.1406C501.444 70.1406 502.491 70.2373 503.361 70.4307C504.231 70.5918 504.973 70.8335 505.585 71.1558C506.229 71.478 506.793 71.8486 507.277 72.2676C507.76 72.6865 508.228 73.1538 508.679 73.6694C509.162 74.1528 509.662 74.6685 510.177 75.2163C510.725 75.7319 511.37 76.2476 512.111 76.7632C512.401 76.9565 512.691 77.1338 512.981 77.2949C513.271 77.4238 513.545 77.585 513.803 77.7783C514.061 77.9395 514.27 78.1489 514.431 78.4067C514.592 78.6323 514.673 78.9546 514.673 79.3735C514.673 79.7603 514.641 80.1953 514.576 80.6787C514.512 81.1299 514.479 81.5811 514.479 82.0322C514.479 82.709 514.592 83.4341 514.818 84.2075C515.043 84.981 515.285 85.7866 515.543 86.6245C515.833 87.4624 516.091 88.3486 516.316 89.2832C516.542 90.1855 516.655 91.104 516.655 92.0386C516.655 92.3608 516.59 92.7476 516.461 93.1987C516.333 93.6499 516.188 94.085 516.026 94.5039C515.897 94.9229 515.769 95.2935 515.64 95.6157C515.543 95.9058 515.495 96.0669 515.495 96.0991C515.495 96.5825 515.656 97.0498 515.978 97.501C516.3 97.9199 516.461 98.4033 516.461 98.9512C516.461 99.2734 516.445 99.5796 516.413 99.8696C516.381 100.127 516.365 100.385 516.365 100.643C516.365 101.191 516.478 101.69 516.703 102.142C516.961 102.593 517.09 103.125 517.09 103.737C517.09 103.898 517.09 104.043 517.09 104.172C517.09 104.301 517.058 104.446 516.993 104.607ZM566.783 84.7876C566.848 85.5288 566.896 86.2861 566.928 87.0596C566.96 87.8008 566.977 88.5742 566.977 89.3799C566.977 91.668 566.864 93.9883 566.638 96.3408C566.413 98.6611 566.155 100.917 565.865 103.108C565.768 103.817 565.639 104.542 565.478 105.284C565.349 105.993 565.285 106.621 565.285 107.169C565.285 108.361 565.397 109.521 565.623 110.649C565.849 111.745 565.961 112.76 565.961 113.695C565.961 113.888 565.833 114.323 565.575 115C565.317 115.677 564.898 116.37 564.318 117.079C563.77 117.788 563.045 118.416 562.143 118.964C561.272 119.544 560.209 119.834 558.952 119.834C557.502 119.834 556.519 119.415 556.003 118.577C555.52 117.739 555.278 116.676 555.278 115.387C555.278 114.484 555.359 113.518 555.52 112.486C555.681 111.423 555.858 110.343 556.052 109.248C555.311 109.409 554.569 109.715 553.828 110.166C553.119 110.617 552.442 111.036 551.798 111.423C550.38 112.261 548.962 113.147 547.544 114.082C546.158 115.016 544.644 115.87 543 116.644C541.356 117.417 539.552 118.062 537.586 118.577C535.652 119.093 533.429 119.351 530.915 119.351C530.851 119.351 530.593 119.351 530.142 119.351C529.723 119.383 529.223 119.383 528.643 119.351C528.063 119.318 527.451 119.238 526.806 119.109C526.194 118.98 525.646 118.771 525.163 118.48C524.454 117.771 523.761 116.885 523.084 115.822C522.439 114.791 521.859 113.775 521.344 112.776C520.86 111.745 520.474 110.843 520.184 110.069C519.894 109.296 519.749 108.829 519.749 108.667C519.684 108.506 519.652 108.361 519.652 108.232C519.652 108.071 519.652 107.91 519.652 107.749C519.652 107.072 519.7 106.379 519.797 105.67C519.894 104.929 520.006 104.236 520.135 103.592C520.264 102.915 520.377 102.351 520.474 101.9C520.57 101.417 520.619 101.094 520.619 100.933C520.619 100.127 520.554 99.354 520.425 98.6128C520.296 97.8394 520.232 97.0015 520.232 96.0991C520.232 95.6802 520.248 95.2451 520.28 94.7939C520.345 94.3105 520.458 93.811 520.619 93.2954C520.619 93.2632 520.699 93.0537 520.86 92.667C521.021 92.2803 521.199 91.8613 521.392 91.4102C521.618 90.959 521.827 90.5239 522.021 90.105C522.246 89.686 522.407 89.4443 522.504 89.3799C522.729 89.1865 523.036 89.0254 523.422 88.8965C523.809 88.7676 524.244 88.6387 524.728 88.5098C525.211 88.3809 525.694 88.252 526.178 88.123C526.693 87.9941 527.193 87.8169 527.676 87.5913C528.417 87.2368 529.078 86.7856 529.658 86.2378C530.271 85.6899 530.818 85.3193 531.302 85.126C531.624 84.9648 532.059 84.8359 532.607 84.7393C533.187 84.6426 533.783 84.4653 534.396 84.2075C534.814 84.0786 535.33 83.9014 535.942 83.6758C536.555 83.418 537.199 83.1924 537.876 82.999C538.585 82.7734 539.294 82.5801 540.003 82.4189C540.712 82.2256 541.389 82.0967 542.033 82.0322C542.323 82.0322 542.678 82.0806 543.097 82.1772C543.548 82.2739 544.08 82.3223 544.692 82.3223C545.143 82.3223 545.691 82.2256 546.335 82.0322C546.98 81.8389 547.753 81.7422 548.656 81.7422C549.558 81.7422 550.428 81.8066 551.266 81.9355C552.104 82.0645 552.749 82.1289 553.2 82.1289C553.554 82.1289 553.764 82.0322 553.828 81.8389C553.925 81.6133 553.973 81.3555 553.973 81.0654C553.973 80.582 553.876 80.0181 553.683 79.3735C553.49 78.729 553.264 78.1006 553.006 77.4883C552.749 76.876 552.507 76.3442 552.281 75.8931C552.056 75.4419 551.895 75.1519 551.798 75.0229C551.314 74.4106 550.767 73.9434 550.154 73.6211C549.574 73.2988 549.042 73.1377 548.559 73.1377C548.043 73.1377 547.528 73.2021 547.012 73.3311C546.529 73.46 545.981 73.5244 545.369 73.5244C544.917 73.5244 544.45 73.4922 543.967 73.4277C543.516 73.3633 543.064 73.3311 542.613 73.3311C541.518 73.3311 540.245 73.605 538.794 74.1528C537.376 74.7007 535.942 75.3291 534.492 76.0381C533.074 76.7471 531.721 77.4238 530.432 78.0684C529.175 78.6807 528.16 79.0835 527.386 79.2769C526.967 79.3735 526.532 79.4702 526.081 79.5669C525.63 79.6313 525.195 79.6636 524.776 79.6636C524.518 79.6636 524.147 79.5347 523.664 79.2769C523.213 78.9868 522.762 78.6323 522.311 78.2134C521.859 77.7944 521.457 77.3271 521.102 76.8115C520.78 76.2637 520.619 75.7319 520.619 75.2163C520.619 74.4429 520.828 73.8145 521.247 73.3311C521.666 72.8154 522.182 72.3804 522.794 72.0259C523.406 71.6714 524.067 71.3652 524.776 71.1074C525.517 70.8174 526.178 70.4951 526.758 70.1406C527.499 69.6895 528.369 69.1577 529.368 68.5454C530.367 67.9331 531.221 67.353 531.93 66.8052C532.671 66.1929 533.203 65.645 533.525 65.1616C533.848 64.646 534.234 64.2593 534.686 64.0015C535.137 63.7437 535.846 63.502 536.812 63.2764C537.779 63.0508 538.682 62.8091 539.52 62.5513C539.777 62.4546 540.132 62.3096 540.583 62.1162C541.066 61.9229 541.55 61.7456 542.033 61.5845C542.549 61.4233 543.032 61.2783 543.483 61.1494C543.967 61.0205 544.337 60.9561 544.595 60.9561H544.789C545.401 61.1816 546.094 61.3589 546.867 61.4878C547.641 61.5845 548.446 61.6812 549.284 61.7778C550.154 61.8745 551.008 61.9873 551.846 62.1162C552.716 62.2129 553.538 62.3579 554.312 62.5513C554.569 62.6157 554.811 62.7607 555.037 62.9863C555.262 63.1797 555.504 63.3247 555.762 63.4214C556.954 63.7759 557.953 64.1465 558.759 64.5332C559.564 64.8877 560.273 65.4678 560.886 66.2734C561.498 67.0469 562.062 68.1748 562.578 69.6572C563.125 71.1074 563.722 73.0894 564.366 75.603C564.495 76.1831 564.737 76.7148 565.091 77.1982C565.446 77.6816 565.704 78.165 565.865 78.6484C566.123 79.4541 566.316 80.437 566.445 81.5972C566.606 82.7251 566.719 83.7886 566.783 84.7876ZM555.182 97.6943C555.343 97.5332 555.439 97.1787 555.472 96.6309C555.536 96.0508 555.568 95.4062 555.568 94.6973C555.568 93.8594 555.552 93.1826 555.52 92.667C555.488 92.1191 555.423 91.7002 555.327 91.4102C555.23 91.1201 555.101 90.9268 554.94 90.8301C554.779 90.7012 554.569 90.6367 554.312 90.6367C554.118 90.6367 553.941 90.6528 553.78 90.6851C553.651 90.7173 553.522 90.7495 553.393 90.7817C553.264 90.8462 553.135 90.8945 553.006 90.9268C552.491 90.8623 552.007 90.8301 551.556 90.8301C551.137 90.8301 550.702 90.8301 550.251 90.8301C549.349 90.8301 548.511 90.8784 547.737 90.9751C546.996 91.0718 546.255 91.2007 545.514 91.3618C544.805 91.5229 544.096 91.7002 543.387 91.8936C542.678 92.0869 541.92 92.2642 541.115 92.4253C539.955 92.7153 538.891 92.9087 537.924 93.0054C536.958 93.1021 536.12 93.2954 535.411 93.5854C534.702 93.8755 534.154 94.3428 533.767 94.9873C533.38 95.5996 533.187 96.5664 533.187 97.8877C533.187 99.2412 533.542 100.16 534.25 100.643C534.959 101.094 535.991 101.32 537.344 101.32C537.763 101.32 538.247 101.255 538.794 101.126C539.342 100.965 539.922 100.788 540.535 100.595C541.179 100.401 541.824 100.208 542.468 100.015C543.145 99.7891 543.822 99.5957 544.499 99.4346C544.982 99.3379 545.498 99.2412 546.045 99.1445C546.625 99.0156 547.189 98.9028 547.737 98.8062C548.317 98.7095 548.849 98.6128 549.333 98.5161C549.848 98.4194 550.283 98.3389 550.638 98.2744C550.863 98.2422 551.218 98.21 551.701 98.1777C552.185 98.1133 552.668 98.0649 553.151 98.0327C553.635 97.9683 554.07 97.9199 554.457 97.8877C554.875 97.8232 555.117 97.7588 555.182 97.6943ZM616.525 94.2139C616.525 95.3096 616.428 96.3892 616.235 97.4526C616.042 98.5161 615.945 99.5474 615.945 100.546C615.945 101.191 615.993 101.835 616.09 102.48C616.187 103.092 616.235 103.705 616.235 104.317C616.235 104.446 616.17 104.72 616.042 105.139C615.913 105.558 615.703 106.025 615.413 106.541C615.155 107.056 614.801 107.572 614.35 108.087C613.931 108.571 613.431 108.925 612.851 109.151C612.464 109.312 612.013 109.409 611.498 109.441C611.014 109.473 610.482 109.505 609.902 109.538C609.354 109.538 608.774 109.554 608.162 109.586C607.582 109.586 607.002 109.634 606.422 109.731C605.616 109.892 604.907 110.069 604.295 110.263C603.715 110.456 603.103 110.553 602.458 110.553C601.298 110.553 600.412 110.247 599.799 109.634C599.219 108.99 598.784 108.2 598.494 107.266C598.236 106.331 598.075 105.348 598.011 104.317C597.946 103.286 597.882 102.351 597.817 101.513C597.721 100.417 597.592 99.4668 597.431 98.6611C597.27 97.8232 597.157 97.0337 597.092 96.2925C597.092 95.8413 597.108 95.4224 597.141 95.0356C597.205 94.6489 597.237 94.2783 597.237 93.9238C597.237 93.0859 597.189 92.3125 597.092 91.6035C596.996 90.8623 596.786 90.2339 596.464 89.7183C596.142 89.2026 595.642 88.7998 594.965 88.5098C594.321 88.2197 593.451 88.0747 592.355 88.0747C591.582 88.0747 590.744 88.1875 589.841 88.4131C588.939 88.6064 588.101 88.9287 587.328 89.3799C586.554 89.8311 585.91 90.395 585.394 91.0718C584.878 91.7485 584.621 92.5381 584.621 93.4404C584.621 93.7949 584.685 94.1816 584.814 94.6006C584.975 95.0195 585.056 95.4868 585.056 96.0024C585.056 96.9048 584.943 97.8394 584.717 98.8062C584.524 99.7407 584.427 100.643 584.427 101.513C584.427 102.867 584.524 104.124 584.717 105.284C584.943 106.444 585.056 107.443 585.056 108.281C585.056 109.409 584.991 110.392 584.862 111.229C584.766 112.067 584.556 112.76 584.234 113.308C583.912 113.856 583.444 114.275 582.832 114.565C582.252 114.855 581.495 115 580.56 115C579.078 115 577.934 114.646 577.128 113.937C576.322 113.228 575.919 112.132 575.919 110.649C575.919 110.102 575.936 109.538 575.968 108.958C576 108.345 576.016 107.717 576.016 107.072C576.016 106.202 575.919 105.477 575.726 104.897C575.533 104.317 575.291 103.753 575.001 103.205C574.743 102.657 574.453 102.077 574.131 101.465C573.841 100.82 573.583 100.015 573.357 99.0479C573.293 98.9512 573.261 98.8384 573.261 98.7095C573.261 98.5806 573.261 98.4355 573.261 98.2744C573.261 97.9199 573.277 97.5171 573.309 97.0659C573.341 96.5825 573.357 96.0991 573.357 95.6157C573.357 94.3267 573.277 92.9409 573.116 91.4585C572.955 89.9761 572.761 88.4614 572.536 86.9146C572.342 85.3677 572.165 83.853 572.004 82.3706C571.843 80.856 571.762 79.4219 571.762 78.0684C571.762 76.876 572.02 75.8931 572.536 75.1196C573.051 74.3462 573.712 73.7339 574.518 73.2827C575.323 72.8315 576.209 72.5254 577.176 72.3643C578.143 72.2031 579.078 72.1226 579.98 72.1226C581.72 72.1226 583.106 72.5898 584.137 73.5244C585.201 74.4268 585.732 75.5547 585.732 76.9082C585.732 77.3594 585.7 77.8428 585.636 78.3584C585.571 78.8418 585.539 79.3413 585.539 79.8569C585.539 80.2114 585.587 80.6143 585.684 81.0654C585.813 81.5166 586.055 81.7422 586.409 81.7422C586.764 81.7422 587.36 81.6294 588.198 81.4038C589.068 81.146 589.97 80.856 590.905 80.5337C591.872 80.2114 592.758 79.9214 593.563 79.6636C594.369 79.4058 594.901 79.2446 595.159 79.1802C596.383 78.9546 597.447 78.8579 598.349 78.8901C599.251 78.9224 600.089 78.8096 600.863 78.5518C601.604 78.3584 602.2 78.165 602.651 77.9717C603.135 77.7783 603.57 77.6011 603.957 77.4399C604.375 77.2788 604.794 77.1499 605.213 77.0532C605.665 76.9565 606.229 76.9082 606.905 76.9082C608.001 76.9082 608.791 77.0371 609.274 77.2949C609.79 77.5205 610.176 77.8267 610.434 78.2134C610.692 78.5679 610.901 78.9707 611.062 79.4219C611.224 79.873 611.498 80.3081 611.884 80.7271C612.368 81.2749 612.867 81.7261 613.383 82.0806C613.931 82.4351 614.414 82.7734 614.833 83.0957C615.284 83.418 615.639 83.7725 615.896 84.1592C616.187 84.5459 616.332 85.0293 616.332 85.6094C616.332 86.0605 616.267 86.5278 616.138 87.0112C616.009 87.4946 615.945 88.0747 615.945 88.7515C615.945 89.5894 616.042 90.4756 616.235 91.4102C616.428 92.3447 616.525 93.2793 616.525 94.2139Z" fill="#BAFF44"/>
<path d="M267.106 550.335C267.01 550.625 266.849 550.883 266.623 551.108C266.397 551.334 266.252 551.608 266.188 551.93C266.059 552.349 265.979 552.784 265.946 553.235C265.914 553.654 265.85 554.073 265.753 554.492C265.688 554.911 265.576 555.314 265.415 555.701C265.253 556.087 264.996 556.442 264.641 556.764C264.254 557.119 263.707 557.409 262.998 557.634C262.289 557.86 261.515 558.069 260.677 558.263C259.872 558.456 259.05 558.649 258.212 558.843C257.406 559.036 256.697 559.262 256.085 559.52C255.602 559.745 255.134 560.067 254.683 560.486C254.232 560.873 253.765 561.292 253.281 561.743C252.798 562.162 252.282 562.565 251.734 562.952C251.219 563.338 250.623 563.612 249.946 563.773C249.462 563.935 248.85 564.047 248.109 564.112C247.368 564.208 246.675 564.305 246.03 564.402C245.386 564.531 244.612 564.66 243.71 564.789C242.84 564.95 241.889 565.095 240.858 565.224C239.859 565.385 238.812 565.514 237.716 565.61C236.652 565.707 235.621 565.755 234.622 565.755C233.591 565.755 232.769 565.675 232.157 565.514C231.577 565.385 231.077 565.208 230.658 564.982C230.239 564.756 229.836 564.499 229.45 564.208C229.063 563.951 228.58 563.709 228 563.483C227.097 563.193 226.179 563 225.244 562.903C224.31 562.807 223.375 562.662 222.44 562.468C221.506 562.275 220.571 561.969 219.637 561.55C218.702 561.131 217.784 560.454 216.881 559.52C216.785 559.423 216.688 559.262 216.591 559.036C216.495 558.778 216.398 558.504 216.301 558.214C216.205 557.924 216.108 557.65 216.011 557.393C215.915 557.135 215.818 556.925 215.721 556.764C215.399 556.313 215.028 555.942 214.609 555.652C214.223 555.33 213.852 555.024 213.498 554.734C213.175 554.412 212.901 554.057 212.676 553.67C212.45 553.284 212.337 552.8 212.337 552.22C212.337 551.801 212.482 551.366 212.772 550.915C213.062 550.432 213.417 549.997 213.836 549.61C214.255 549.223 214.706 548.901 215.189 548.643C215.673 548.385 216.108 548.256 216.495 548.256H217.22C217.639 548.256 217.977 548.144 218.235 547.918C218.525 547.692 218.75 547.418 218.912 547.096C219.073 546.774 219.186 546.419 219.25 546.033C219.347 545.646 219.395 545.292 219.395 544.969C219.395 544.292 219.331 543.519 219.202 542.649C219.105 541.779 219.057 540.78 219.057 539.652C219.057 539.104 219.073 538.556 219.105 538.008C219.169 537.428 219.202 536.88 219.202 536.365C219.202 535.559 219.089 534.882 218.863 534.334C218.67 533.787 218.541 533.207 218.477 532.594C218.315 531.112 218.187 529.484 218.09 527.712C218.025 525.939 217.993 524.103 217.993 522.201C217.993 521.331 218.025 520.429 218.09 519.494C218.154 518.56 218.219 517.641 218.283 516.739C218.348 515.836 218.412 514.982 218.477 514.177C218.541 513.339 218.573 512.614 218.573 512.001C218.573 511.615 218.315 511.309 217.8 511.083C217.316 510.857 216.785 510.567 216.205 510.213C215.625 509.858 215.077 509.375 214.561 508.763C214.078 508.118 213.836 507.184 213.836 505.959C213.836 504.67 214.287 503.478 215.189 502.382C216.124 501.286 217.252 500.335 218.573 499.53C219.895 498.692 221.296 498.047 222.779 497.596C224.261 497.113 225.566 496.871 226.694 496.871C228.628 496.871 230.642 497.032 232.737 497.354C234.832 497.677 236.942 497.838 239.069 497.838C239.488 497.838 239.972 497.79 240.52 497.693C241.067 497.564 241.68 497.435 242.356 497.306C243.065 497.177 243.839 497.064 244.677 496.968C245.515 496.839 246.449 496.774 247.48 496.774C248.125 496.774 248.641 496.855 249.027 497.016C249.414 497.177 249.769 497.387 250.091 497.645C250.445 497.87 250.784 498.144 251.106 498.466C251.46 498.756 251.912 499.046 252.459 499.336C252.814 499.53 253.249 499.675 253.765 499.771C254.28 499.868 254.731 500.029 255.118 500.255C255.569 500.448 255.972 500.674 256.327 500.932C256.681 501.157 257.003 501.318 257.293 501.415C258.389 501.802 259.372 502.06 260.242 502.188C261.145 502.317 261.902 502.527 262.514 502.817C263.126 503.075 263.594 503.51 263.916 504.122C264.238 504.702 264.399 505.621 264.399 506.877C264.399 508.65 264.19 510.003 263.771 510.938C263.384 511.873 262.788 512.565 261.982 513.017C261.177 513.436 260.178 513.709 258.985 513.838C257.793 513.967 256.407 514.112 254.828 514.273C253.41 514.435 252.008 514.563 250.623 514.66C249.269 514.757 247.803 514.805 246.224 514.805C244.322 514.805 242.211 514.692 239.891 514.467C237.571 514.209 235.25 514.08 232.93 514.08C232.318 514.08 231.818 514.096 231.432 514.128C231.045 514.161 230.739 514.273 230.513 514.467C230.32 514.66 230.175 514.966 230.078 515.385C230.014 515.804 229.981 516.4 229.981 517.174C229.981 517.722 229.998 518.286 230.03 518.866C230.094 519.446 230.159 519.994 230.223 520.509C230.288 521.025 230.352 521.46 230.417 521.814C230.513 522.169 230.594 522.395 230.658 522.491C230.948 522.813 231.512 523.071 232.35 523.265C233.188 523.426 234.106 523.555 235.105 523.651C236.104 523.716 237.087 523.764 238.054 523.796C239.053 523.796 239.859 523.796 240.471 523.796C241.212 523.796 241.873 523.716 242.453 523.555C243.065 523.394 243.629 523.216 244.145 523.023C244.693 522.797 245.192 522.604 245.644 522.443C246.127 522.282 246.61 522.201 247.094 522.201C247.609 522.201 247.996 522.25 248.254 522.346C248.544 522.443 248.77 522.572 248.931 522.733C249.092 522.862 249.205 523.007 249.269 523.168C249.366 523.297 249.495 523.41 249.656 523.506C250.042 523.764 250.349 523.99 250.574 524.183C250.8 524.376 250.977 524.586 251.106 524.812C251.235 525.037 251.315 525.327 251.348 525.682C251.412 526.004 251.444 526.439 251.444 526.987C251.444 528.824 251.315 530.242 251.058 531.241C250.8 532.24 250.268 532.997 249.462 533.513C248.689 533.996 247.577 534.318 246.127 534.479C244.709 534.608 242.824 534.705 240.471 534.77C239.601 534.802 238.892 534.85 238.344 534.915C237.796 534.947 237.377 535.043 237.087 535.205C236.797 535.333 236.588 535.527 236.459 535.785C236.362 536.042 236.314 536.397 236.314 536.848C236.314 538.363 236.298 539.636 236.266 540.667C236.266 541.666 236.395 542.488 236.652 543.132C236.91 543.745 237.377 544.196 238.054 544.486C238.731 544.744 239.762 544.873 241.148 544.873C242.211 544.873 243.307 544.824 244.435 544.728C245.563 544.631 246.691 544.518 247.819 544.389C248.947 544.228 250.042 544.051 251.106 543.857C252.202 543.664 253.233 543.471 254.2 543.277C255.005 543.116 255.747 542.907 256.423 542.649C257.1 542.391 257.745 542.149 258.357 541.924C259.001 541.666 259.646 541.457 260.291 541.295C260.935 541.102 261.612 541.005 262.321 541.005C264.061 541.005 265.382 541.505 266.285 542.504C267.219 543.503 267.687 544.953 267.687 546.854C267.687 547.402 267.638 547.982 267.542 548.595C267.445 549.207 267.3 549.787 267.106 550.335ZM315.156 542.214C315.156 543.31 315.06 544.389 314.866 545.453C314.673 546.516 314.576 547.547 314.576 548.546C314.576 549.191 314.625 549.835 314.721 550.48C314.818 551.092 314.866 551.705 314.866 552.317C314.866 552.446 314.802 552.72 314.673 553.139C314.544 553.558 314.334 554.025 314.044 554.541C313.787 555.056 313.432 555.572 312.981 556.087C312.562 556.571 312.062 556.925 311.482 557.151C311.096 557.312 310.645 557.409 310.129 557.441C309.646 557.473 309.114 557.505 308.534 557.538C307.986 557.538 307.406 557.554 306.793 557.586C306.213 557.586 305.633 557.634 305.053 557.731C304.248 557.892 303.539 558.069 302.926 558.263C302.346 558.456 301.734 558.553 301.089 558.553C299.929 558.553 299.043 558.247 298.431 557.634C297.851 556.99 297.416 556.2 297.125 555.266C296.868 554.331 296.707 553.348 296.642 552.317C296.578 551.286 296.513 550.351 296.449 549.513C296.352 548.417 296.223 547.467 296.062 546.661C295.901 545.823 295.788 545.034 295.724 544.292C295.724 543.841 295.74 543.422 295.772 543.036C295.836 542.649 295.869 542.278 295.869 541.924C295.869 541.086 295.82 540.312 295.724 539.604C295.627 538.862 295.417 538.234 295.095 537.718C294.773 537.203 294.273 536.8 293.597 536.51C292.952 536.22 292.082 536.075 290.986 536.075C290.213 536.075 289.375 536.188 288.473 536.413C287.57 536.606 286.732 536.929 285.959 537.38C285.186 537.831 284.541 538.395 284.025 539.072C283.51 539.749 283.252 540.538 283.252 541.44C283.252 541.795 283.316 542.182 283.445 542.601C283.606 543.02 283.687 543.487 283.687 544.002C283.687 544.905 283.574 545.839 283.349 546.806C283.155 547.741 283.059 548.643 283.059 549.513C283.059 550.867 283.155 552.124 283.349 553.284C283.574 554.444 283.687 555.443 283.687 556.281C283.687 557.409 283.623 558.392 283.494 559.229C283.397 560.067 283.188 560.76 282.865 561.308C282.543 561.856 282.076 562.275 281.463 562.565C280.883 562.855 280.126 563 279.191 563C277.709 563 276.565 562.646 275.759 561.937C274.954 561.228 274.551 560.132 274.551 558.649C274.551 558.102 274.567 557.538 274.599 556.958C274.631 556.345 274.647 555.717 274.647 555.072C274.647 554.202 274.551 553.477 274.357 552.897C274.164 552.317 273.922 551.753 273.632 551.205C273.375 550.657 273.084 550.077 272.762 549.465C272.472 548.82 272.214 548.015 271.989 547.048C271.924 546.951 271.892 546.838 271.892 546.709C271.892 546.581 271.892 546.436 271.892 546.274C271.892 545.92 271.908 545.517 271.94 545.066C271.973 544.583 271.989 544.099 271.989 543.616C271.989 542.327 271.908 540.941 271.747 539.458C271.586 537.976 271.393 536.461 271.167 534.915C270.974 533.368 270.796 531.853 270.635 530.371C270.474 528.856 270.394 527.422 270.394 526.068C270.394 524.876 270.651 523.893 271.167 523.12C271.683 522.346 272.343 521.734 273.149 521.283C273.955 520.832 274.841 520.525 275.808 520.364C276.774 520.203 277.709 520.123 278.611 520.123C280.352 520.123 281.737 520.59 282.769 521.524C283.832 522.427 284.364 523.555 284.364 524.908C284.364 525.359 284.332 525.843 284.267 526.358C284.203 526.842 284.17 527.341 284.17 527.857C284.17 528.211 284.219 528.614 284.315 529.065C284.444 529.517 284.686 529.742 285.041 529.742C285.395 529.742 285.991 529.629 286.829 529.404C287.699 529.146 288.602 528.856 289.536 528.534C290.503 528.211 291.389 527.921 292.195 527.664C293 527.406 293.532 527.245 293.79 527.18C295.015 526.955 296.078 526.858 296.98 526.89C297.883 526.922 298.721 526.81 299.494 526.552C300.235 526.358 300.832 526.165 301.283 525.972C301.766 525.778 302.201 525.601 302.588 525.44C303.007 525.279 303.426 525.15 303.845 525.053C304.296 524.957 304.86 524.908 305.537 524.908C306.632 524.908 307.422 525.037 307.905 525.295C308.421 525.521 308.808 525.827 309.065 526.213C309.323 526.568 309.533 526.971 309.694 527.422C309.855 527.873 310.129 528.308 310.516 528.727C310.999 529.275 311.499 529.726 312.014 530.081C312.562 530.435 313.045 530.773 313.464 531.096C313.916 531.418 314.27 531.772 314.528 532.159C314.818 532.546 314.963 533.029 314.963 533.609C314.963 534.061 314.898 534.528 314.77 535.011C314.641 535.495 314.576 536.075 314.576 536.751C314.576 537.589 314.673 538.476 314.866 539.41C315.06 540.345 315.156 541.279 315.156 542.214ZM366.735 528.534C366.67 529.372 366.38 530.129 365.865 530.806C365.349 531.45 364.769 532.03 364.125 532.546C363.512 533.029 362.916 533.432 362.336 533.754C361.756 534.044 361.401 534.222 361.272 534.286C360.692 534.641 360.048 535.011 359.339 535.398C358.63 535.752 357.889 536.091 357.115 536.413C356.342 536.735 355.552 536.993 354.747 537.187C353.941 537.38 353.151 537.477 352.378 537.477C350.96 537.477 349.848 537.235 349.042 536.751C348.237 536.236 347.608 535.575 347.157 534.77C346.738 533.964 346.432 533.078 346.239 532.111C346.078 531.144 345.9 530.193 345.707 529.259C345.546 528.324 345.336 527.47 345.079 526.697C344.853 525.923 344.45 525.327 343.87 524.908C343.516 524.65 342.952 524.473 342.178 524.376C341.437 524.248 340.647 524.183 339.81 524.183C339.229 524.183 338.666 524.199 338.118 524.231C337.602 524.264 337.135 524.312 336.716 524.376C336.297 524.409 335.942 524.441 335.652 524.473C335.395 524.505 335.25 524.538 335.217 524.57C334.798 524.795 334.476 525.247 334.25 525.923C334.025 526.6 333.832 527.341 333.67 528.147C333.542 528.953 333.445 529.758 333.38 530.564C333.316 531.37 333.235 532.014 333.139 532.498C332.945 533.851 332.671 535.205 332.317 536.558C331.962 537.912 331.785 539.201 331.785 540.425C331.785 540.78 331.882 541.328 332.075 542.069C332.301 542.778 332.575 543.519 332.897 544.292C333.251 545.066 333.622 545.791 334.009 546.468C334.428 547.112 334.831 547.547 335.217 547.773C335.507 547.934 335.91 548.047 336.426 548.111C336.941 548.144 337.489 548.16 338.069 548.16C338.649 548.16 339.229 548.176 339.81 548.208C340.39 548.208 340.905 548.256 341.356 548.353C342.227 548.546 343.097 548.804 343.967 549.126C344.837 549.417 345.691 549.723 346.529 550.045C347.399 550.335 348.253 550.593 349.091 550.818C349.929 551.012 350.75 551.108 351.556 551.108C353.071 551.108 354.328 550.851 355.327 550.335C356.358 549.819 357.421 549.062 358.517 548.063C358.807 547.773 359.065 547.483 359.291 547.193C359.548 546.871 359.806 546.581 360.064 546.323C360.354 546.033 360.676 545.807 361.031 545.646C361.385 545.453 361.804 545.356 362.288 545.356C363.125 545.356 363.689 545.727 363.979 546.468C364.302 547.209 364.463 548.127 364.463 549.223C364.463 551.672 364.028 553.896 363.158 555.894C362.288 557.892 360.644 559.568 358.227 560.921C357.808 561.179 357.341 561.292 356.825 561.26C356.342 561.228 355.875 561.308 355.423 561.501C354.843 561.792 354.344 562.146 353.925 562.565C353.506 562.984 353.055 563.387 352.571 563.773C352.12 564.16 351.588 564.482 350.976 564.74C350.364 565.03 349.606 565.175 348.704 565.175C347.866 565.175 346.964 564.998 345.997 564.644C345.062 564.321 344.047 563.999 342.952 563.677C342.468 563.548 341.985 563.467 341.501 563.435C341.018 563.403 340.551 563.387 340.1 563.387C339.648 563.387 339.213 563.371 338.794 563.338C338.408 563.306 338.053 563.226 337.731 563.097C337.086 562.871 336.313 562.484 335.411 561.937C334.541 561.389 333.622 560.76 332.655 560.051C331.688 559.342 330.689 558.617 329.658 557.876C328.627 557.103 327.644 556.394 326.709 555.749C325.936 555.233 325.308 554.814 324.824 554.492C324.341 554.17 323.922 553.832 323.567 553.477C323.245 553.123 322.923 552.688 322.601 552.172C322.311 551.624 321.94 550.883 321.489 549.948C321.038 549.014 320.651 548.192 320.329 547.483C320.039 546.742 319.894 546.081 319.894 545.501C319.894 544.566 319.958 543.503 320.087 542.311C320.216 541.086 320.28 539.861 320.28 538.637C320.28 537.638 320.232 536.655 320.135 535.688C320.039 534.689 319.99 533.69 319.99 532.691C319.99 530.886 320.184 529.178 320.57 527.567C320.667 527.277 320.86 527.003 321.15 526.745C321.44 526.455 321.682 526.133 321.875 525.778C322.101 525.295 322.311 524.779 322.504 524.231C322.697 523.651 322.891 523.087 323.084 522.54C323.31 521.992 323.535 521.476 323.761 520.993C323.986 520.477 324.244 520.026 324.534 519.639C324.889 519.188 325.372 518.608 325.984 517.899C326.629 517.19 327.322 516.497 328.063 515.82C328.804 515.144 329.529 514.563 330.238 514.08C330.979 513.564 331.624 513.307 332.172 513.307C333.171 513.307 334.25 513.419 335.411 513.645C336.603 513.871 337.699 513.983 338.698 513.983C339.375 513.983 339.874 513.919 340.196 513.79C340.551 513.661 340.825 513.5 341.018 513.307C341.211 513.113 341.356 512.92 341.453 512.727C341.582 512.501 341.775 512.292 342.033 512.098C342.291 511.905 342.646 511.744 343.097 511.615C343.58 511.486 344.257 511.421 345.127 511.421C345.643 511.421 346.207 511.438 346.819 511.47C347.431 511.502 348.06 511.55 348.704 511.615C350.154 511.744 351.427 511.808 352.523 511.808C353.619 511.808 354.585 511.873 355.423 512.001C356.293 512.098 357.083 512.308 357.792 512.63C358.501 512.952 359.21 513.5 359.919 514.273C360.628 515.015 361.385 516.046 362.191 517.367C362.997 518.656 363.915 520.332 364.946 522.395C365.14 522.813 365.333 523.313 365.526 523.893C365.752 524.473 365.945 525.053 366.106 525.633C366.3 526.213 366.445 526.761 366.542 527.277C366.67 527.792 366.735 528.211 366.735 528.534ZM411.062 533.609C411.062 533.803 411.079 533.98 411.111 534.141C411.143 534.302 411.159 534.479 411.159 534.673C411.159 535.414 411.062 536.171 410.869 536.945C410.708 537.718 410.499 538.492 410.241 539.265C409.983 540.039 409.725 540.828 409.467 541.634C409.209 542.407 409.016 543.197 408.887 544.002C408.823 544.325 408.791 544.695 408.791 545.114C408.791 545.501 408.791 545.904 408.791 546.323C408.791 546.742 408.774 547.145 408.742 547.531C408.71 547.918 408.662 548.256 408.597 548.546C408.436 549.352 408.114 550.222 407.63 551.157C407.147 552.091 406.68 552.978 406.229 553.815C405.552 555.072 404.939 556.136 404.392 557.006C403.876 557.844 403.248 558.537 402.506 559.084C401.797 559.6 400.895 559.971 399.799 560.196C398.704 560.422 397.253 560.535 395.449 560.535C393.902 560.535 392.339 560.454 390.76 560.293C389.181 560.132 387.65 559.906 386.167 559.616C384.685 559.326 383.299 559.004 382.01 558.649C380.721 558.263 379.609 557.86 378.675 557.441C377.579 556.958 376.709 556.442 376.064 555.894C375.42 555.346 374.856 554.686 374.373 553.912C373.921 553.139 373.502 552.188 373.116 551.06C372.729 549.9 372.246 548.466 371.666 546.758C371.375 545.888 371.069 545.034 370.747 544.196C370.457 543.358 370.199 542.52 369.974 541.682C369.748 540.812 369.571 539.958 369.442 539.12C369.313 538.25 369.265 537.364 369.297 536.461C369.297 535.946 369.329 535.35 369.394 534.673C369.49 533.964 369.603 533.271 369.732 532.594C369.861 531.885 370.006 531.225 370.167 530.612C370.328 529.968 370.505 529.452 370.699 529.065C370.86 528.679 371.037 528.356 371.23 528.099C371.456 527.841 371.666 527.583 371.859 527.325C372.052 527.067 372.213 526.81 372.342 526.552C372.471 526.294 372.536 525.972 372.536 525.585C372.536 525.295 372.503 525.053 372.439 524.86C372.375 524.634 372.294 524.425 372.197 524.231C372.101 524.038 372.02 523.845 371.956 523.651C371.891 523.426 371.859 523.184 371.859 522.926C371.859 522.958 371.923 522.781 372.052 522.395C372.213 522.008 372.423 521.541 372.681 520.993C372.938 520.413 373.245 519.8 373.599 519.156C373.986 518.479 374.389 517.867 374.808 517.319C375.259 516.739 375.742 516.255 376.258 515.869C376.806 515.482 377.354 515.289 377.901 515.289H379.013H379.4C379.851 515.289 380.399 515.337 381.043 515.434C381.688 515.53 382.381 515.627 383.122 515.724C383.896 515.82 384.701 515.917 385.539 516.014C386.409 516.11 387.263 516.159 388.101 516.159C389.583 516.159 391.082 516.11 392.597 516.014C394.111 515.917 395.545 515.869 396.899 515.869C398.833 515.869 400.299 516.11 401.298 516.594C402.329 517.077 403.086 517.689 403.57 518.431C404.085 519.14 404.44 519.929 404.633 520.799C404.859 521.637 405.149 522.443 405.503 523.216C405.761 523.796 406.212 524.425 406.857 525.102C407.501 525.746 408.082 526.536 408.597 527.47C408.855 527.921 409.016 528.469 409.081 529.114C409.145 529.758 409.306 530.322 409.564 530.806C409.822 531.515 410.112 532.062 410.434 532.449C410.789 532.804 410.998 533.19 411.062 533.609ZM399.509 536.075C399.574 535.43 399.638 534.576 399.703 533.513C399.767 532.417 399.799 531.354 399.799 530.322C399.799 529.807 399.735 529.194 399.606 528.485C399.477 527.744 399.203 527.051 398.784 526.407C398.365 525.73 397.753 525.166 396.947 524.715C396.174 524.231 395.143 523.99 393.854 523.99C393.048 523.99 392.21 524.07 391.34 524.231C390.502 524.393 389.68 524.473 388.875 524.473C388.488 524.473 388.085 524.457 387.666 524.425C387.247 524.393 386.828 524.376 386.409 524.376C385.281 524.376 384.363 524.618 383.654 525.102C382.945 525.553 382.397 526.181 382.01 526.987C381.624 527.76 381.35 528.679 381.188 529.742C381.06 530.806 380.995 531.934 380.995 533.126C380.995 534.673 381.043 535.962 381.14 536.993C381.269 538.024 381.462 538.878 381.72 539.555C381.978 540.232 382.3 540.78 382.687 541.199C383.074 541.585 383.557 541.924 384.137 542.214C384.653 542.407 385.072 542.504 385.394 542.504C385.716 542.504 386.119 542.601 386.603 542.794C386.893 542.891 387.118 543.036 387.279 543.229C387.44 543.39 387.585 543.567 387.714 543.761C387.875 543.922 388.037 544.067 388.198 544.196C388.391 544.325 388.617 544.389 388.875 544.389C389.1 544.389 389.342 544.373 389.6 544.341C389.89 544.309 390.18 544.292 390.47 544.292C390.856 544.292 391.195 544.357 391.485 544.486C391.775 544.615 392.017 544.776 392.21 544.969C392.436 545.13 392.629 545.275 392.79 545.404C392.983 545.533 393.177 545.598 393.37 545.598C393.467 545.565 393.789 545.404 394.337 545.114C394.917 544.824 395.529 544.502 396.174 544.147C396.818 543.761 397.398 543.406 397.914 543.084C398.462 542.762 398.752 542.568 398.784 542.504C398.945 542.246 399.058 541.843 399.123 541.295C399.219 540.715 399.284 540.103 399.316 539.458C399.38 538.814 399.413 538.186 399.413 537.573C399.445 536.961 399.477 536.461 399.509 536.075ZM466.218 552.704C466.315 553.993 466.444 555.185 466.605 556.281C466.798 557.376 466.895 558.392 466.895 559.326C466.895 560.1 466.766 560.857 466.508 561.598C466.283 562.339 465.864 562.984 465.251 563.532C464.671 564.112 463.882 564.579 462.883 564.934C461.916 565.288 460.691 565.465 459.209 565.465C457.211 565.465 455.632 565.353 454.472 565.127C453.344 564.901 452.506 564.515 451.958 563.967C451.41 563.419 451.072 562.71 450.943 561.84C450.814 560.97 450.75 559.874 450.75 558.553C450.75 558.005 450.766 557.441 450.798 556.861C450.862 556.281 450.927 555.685 450.991 555.072C449.734 555.427 448.429 555.749 447.076 556.039C445.754 556.297 444.175 556.603 442.338 556.958C441.694 557.054 441.082 557.28 440.501 557.634C439.921 557.989 439.357 558.166 438.81 558.166C438.455 558.166 438.068 558.118 437.649 558.021C437.263 557.924 436.892 557.876 436.538 557.876C435.7 557.876 434.83 558.021 433.927 558.311C433.057 558.601 432.3 558.746 431.655 558.746C431.075 558.746 430.415 558.601 429.673 558.311C428.964 558.021 428.11 557.876 427.111 557.876H425.419C424.13 557.876 422.857 557.586 421.601 557.006C420.344 556.426 419.216 555.781 418.217 555.072C417.218 554.331 416.396 553.638 415.751 552.994C415.139 552.317 414.833 551.898 414.833 551.737C414.769 551.64 414.704 551.366 414.64 550.915C414.575 550.464 414.511 549.98 414.446 549.465C414.414 548.949 414.366 548.466 414.301 548.015C414.269 547.563 414.253 547.273 414.253 547.145C414.188 546.661 414.156 546.178 414.156 545.694C414.156 545.211 414.156 544.744 414.156 544.292C414.156 543.326 414.188 542.407 414.253 541.537C414.317 540.635 414.398 539.732 414.495 538.83C414.591 537.928 414.672 537.009 414.736 536.075C414.801 535.14 414.833 534.157 414.833 533.126C414.833 532.61 414.817 532.095 414.785 531.579C414.752 531.031 414.736 530.483 414.736 529.936C414.736 529.484 414.769 529.114 414.833 528.824C414.93 528.501 415.026 528.211 415.123 527.954C415.22 527.696 415.316 527.454 415.413 527.229C415.542 526.971 415.639 526.681 415.703 526.358C415.864 525.972 415.913 525.537 415.848 525.053C415.816 524.538 415.913 524.054 416.138 523.603C416.203 523.345 416.332 523.087 416.525 522.83C416.75 522.54 416.992 522.233 417.25 521.911C417.54 521.589 417.814 521.267 418.072 520.944C418.362 520.622 418.604 520.284 418.797 519.929C419.087 519.414 419.312 518.914 419.474 518.431C419.667 517.915 419.844 517.448 420.005 517.029C420.167 516.578 420.344 516.191 420.537 515.869C420.73 515.514 420.972 515.256 421.262 515.095C421.456 514.966 421.778 514.854 422.229 514.757C422.68 514.66 423.18 514.563 423.728 514.467C424.275 514.338 424.839 514.225 425.419 514.128C426.032 514.032 426.596 513.919 427.111 513.79C428.562 513.436 430.318 513.146 432.38 512.92C434.475 512.662 436.521 512.533 438.52 512.533C439.938 512.533 441.194 512.678 442.29 512.968C443.386 513.258 444.401 513.597 445.335 513.983C446.302 514.338 447.221 514.708 448.091 515.095C448.993 515.482 449.96 515.772 450.991 515.965C451.152 514.741 451.265 513.258 451.33 511.518C451.426 509.778 451.475 507.989 451.475 506.152C451.475 505.186 451.426 504.219 451.33 503.252C451.265 502.285 451.168 501.351 451.04 500.448C450.943 499.514 450.846 498.66 450.75 497.886C450.685 497.081 450.653 496.372 450.653 495.759C450.653 495.34 450.766 494.825 450.991 494.212C451.217 493.568 451.523 492.972 451.91 492.424C452.329 491.844 452.812 491.36 453.36 490.974C453.94 490.555 454.568 490.345 455.245 490.345C455.761 490.345 456.309 490.458 456.889 490.684C457.469 490.877 458 491.135 458.484 491.457C458.967 491.747 459.37 492.102 459.692 492.521C460.015 492.907 460.176 493.294 460.176 493.681C460.176 494.1 460.111 494.519 459.982 494.938C459.854 495.356 459.789 495.84 459.789 496.388C459.854 496.871 460.031 497.403 460.321 497.983C460.643 498.563 460.853 499.143 460.949 499.723C461.143 500.464 461.239 501.479 461.239 502.769C461.271 504.058 461.288 505.492 461.288 507.071C461.32 508.618 461.368 510.245 461.433 511.953C461.497 513.661 461.674 515.305 461.964 516.884C462.061 517.464 462.222 517.979 462.448 518.431C462.706 518.85 462.963 519.285 463.221 519.736C463.511 520.155 463.753 520.622 463.946 521.138C464.14 521.621 464.236 522.217 464.236 522.926C464.236 523.506 464.204 524.135 464.14 524.812C464.075 525.456 464.043 526.181 464.043 526.987C464.14 528.856 464.269 530.854 464.43 532.981C464.591 535.076 464.768 537.235 464.961 539.458C465.187 541.682 465.396 543.922 465.59 546.178C465.815 548.401 466.025 550.577 466.218 552.704ZM451.861 528.824C451.7 528.63 451.362 528.518 450.846 528.485C450.363 528.421 449.783 528.389 449.106 528.389C448.429 528.356 447.688 528.324 446.882 528.292C446.077 528.228 445.287 528.115 444.514 527.954C444.062 527.857 443.692 527.744 443.402 527.615C443.144 527.486 442.902 527.374 442.677 527.277C442.451 527.148 442.209 527.051 441.952 526.987C441.694 526.89 441.372 526.842 440.985 526.842C439.76 526.842 438.568 526.922 437.408 527.083C436.28 527.212 435.394 527.502 434.749 527.954C434.427 528.211 434.104 528.695 433.782 529.404C433.492 530.113 433.234 530.967 433.009 531.966C432.783 532.965 432.606 534.028 432.477 535.156C432.348 536.284 432.284 537.38 432.284 538.443C432.284 540.538 432.525 542.021 433.009 542.891C433.524 543.761 434.459 544.196 435.812 544.196C436.425 544.196 437.069 544.131 437.746 544.002C438.423 543.841 439.083 543.68 439.728 543.519C440.405 543.326 441.017 543.148 441.565 542.987C442.113 542.794 442.58 542.665 442.967 542.601C443.321 542.568 443.95 542.504 444.852 542.407C445.754 542.278 446.673 542.149 447.607 542.021C448.574 541.859 449.444 541.698 450.218 541.537C450.991 541.376 451.442 541.199 451.571 541.005C451.668 540.909 451.732 540.683 451.765 540.329C451.829 539.974 451.861 539.571 451.861 539.12C451.861 538.701 451.845 538.25 451.813 537.767C451.781 537.251 451.749 536.784 451.716 536.365C451.684 535.914 451.652 535.527 451.62 535.205C451.587 534.882 451.571 534.673 451.571 534.576C451.571 534.544 451.604 534.383 451.668 534.093C451.732 533.803 451.797 533.448 451.861 533.029C451.926 532.61 451.99 532.159 452.055 531.676C452.119 531.192 452.151 530.741 452.151 530.322C452.151 529.678 452.055 529.178 451.861 528.824ZM515.235 551.398C515.299 552.043 515.364 552.639 515.428 553.187C515.525 553.735 515.573 554.234 515.573 554.686C515.573 555.201 515.541 555.588 515.477 555.846C515.412 556.104 515.299 556.329 515.138 556.522C515.009 556.716 514.816 556.925 514.558 557.151C514.333 557.376 514.042 557.715 513.688 558.166C513.301 558.778 512.915 559.423 512.528 560.1C512.173 560.776 511.738 561.389 511.223 561.937C510.739 562.484 510.159 562.936 509.482 563.29C508.838 563.677 508.048 563.87 507.114 563.87C506.534 563.87 505.905 563.822 505.229 563.725C504.584 563.661 503.923 563.58 503.247 563.483C502.602 563.387 501.958 563.29 501.313 563.193C500.701 563.129 500.137 563.097 499.621 563.097C497.397 563.097 495.142 563.064 492.854 563C490.598 562.903 488.455 562.613 486.424 562.13C485.748 561.937 485.039 561.775 484.297 561.646C483.556 561.485 482.815 561.308 482.074 561.115C481.333 560.921 480.624 560.696 479.947 560.438C479.27 560.148 478.69 559.81 478.207 559.423C476.821 558.037 475.709 556.522 474.871 554.879C474.065 553.235 473.421 551.382 472.938 549.32C472.486 547.257 472.164 544.969 471.971 542.456C471.777 539.942 471.616 537.122 471.487 533.996C471.423 532.9 471.31 531.853 471.149 530.854C470.988 529.855 470.907 529.082 470.907 528.534C470.907 528.276 471.02 527.873 471.246 527.325C471.503 526.777 471.681 526.262 471.777 525.778C471.938 525.069 472.003 524.376 471.971 523.7C471.971 522.991 472.003 522.556 472.067 522.395C472.164 522.169 472.357 521.911 472.647 521.621C472.97 521.299 473.308 520.96 473.663 520.606C474.049 520.251 474.42 519.897 474.774 519.542C475.161 519.156 475.483 518.785 475.741 518.431C475.967 518.108 476.515 517.722 477.385 517.271C478.287 516.787 479.399 516.271 480.72 515.724C482.042 515.176 483.524 514.644 485.167 514.128C486.811 513.581 488.487 513.097 490.195 512.678C491.935 512.227 493.659 511.873 495.367 511.615C497.107 511.325 498.719 511.164 500.201 511.131C500.813 511.131 501.49 511.244 502.231 511.47C503.005 511.695 503.762 512.001 504.503 512.388C505.277 512.743 506.018 513.162 506.727 513.645C507.436 514.128 508.032 514.612 508.516 515.095C508.773 515.353 509.015 515.788 509.241 516.4C509.466 516.98 509.724 517.464 510.014 517.851C510.723 518.753 511.207 519.43 511.464 519.881C511.754 520.332 511.932 520.735 511.996 521.089C512.093 521.444 512.125 521.831 512.093 522.25C512.061 522.668 512.093 523.313 512.189 524.183C512.254 524.86 512.302 525.424 512.334 525.875C512.367 526.326 512.383 526.745 512.383 527.132C512.383 527.519 512.383 527.889 512.383 528.244C512.383 528.598 512.383 529.001 512.383 529.452C512.383 530.387 512.141 531.144 511.658 531.724C511.174 532.304 510.514 532.836 509.676 533.319C508.838 533.803 507.823 534.27 506.63 534.721C505.47 535.172 504.213 535.72 502.86 536.365C501.732 536.913 500.523 537.299 499.234 537.525C497.945 537.75 496.753 537.863 495.657 537.863C495.496 537.863 495.367 537.863 495.271 537.863C495.174 537.863 495.045 537.831 494.884 537.767C494.658 537.734 494.271 537.799 493.724 537.96C493.176 538.121 492.547 538.314 491.838 538.54C491.129 538.733 490.356 538.927 489.518 539.12C488.712 539.281 487.923 539.362 487.149 539.362C486.634 539.362 486.134 539.442 485.651 539.604C485.2 539.732 484.797 539.91 484.442 540.135C484.088 540.361 483.798 540.586 483.572 540.812C483.379 541.038 483.282 541.247 483.282 541.44C483.282 542.568 483.476 543.471 483.862 544.147C484.281 544.824 484.732 545.34 485.216 545.694C485.796 546.113 486.44 546.403 487.149 546.564C487.955 546.919 488.729 547.161 489.47 547.29C490.211 547.386 490.952 547.435 491.693 547.435C492.918 547.435 494.191 547.338 495.512 547.145C496.866 546.951 498.396 546.854 500.104 546.854C500.91 546.854 501.587 546.951 502.135 547.145C502.715 547.338 503.327 547.435 503.972 547.435C504.648 547.435 505.325 547.37 506.002 547.241C506.679 547.112 507.323 546.967 507.936 546.806C508.548 546.645 509.128 546.5 509.676 546.371C510.256 546.242 510.788 546.178 511.271 546.178C512.528 546.178 513.43 546.613 513.978 547.483C514.558 548.321 514.977 549.626 515.235 551.398ZM496.527 529.162C496.592 529.001 496.64 528.824 496.672 528.63C496.705 528.437 496.721 528.244 496.721 528.05C496.721 527.083 496.624 526.229 496.431 525.488C496.27 524.715 496.06 524.07 495.802 523.555C495.577 523.007 495.319 522.604 495.029 522.346C494.739 522.056 494.481 521.911 494.255 521.911C493.643 521.911 492.725 522.04 491.5 522.298C490.275 522.523 489.035 522.813 487.778 523.168C486.521 523.522 485.377 523.909 484.346 524.328C483.347 524.747 482.734 525.134 482.509 525.488C482.348 525.746 482.235 526.133 482.17 526.648C482.106 527.132 482.074 527.696 482.074 528.34C482.074 529.694 482.154 530.741 482.315 531.482C482.509 532.224 482.831 532.594 483.282 532.594C483.572 532.594 483.895 532.546 484.249 532.449C484.604 532.353 484.942 532.256 485.264 532.159C485.619 532.03 485.925 531.917 486.183 531.821C486.473 531.724 486.698 531.66 486.859 531.627C487.568 531.499 488.438 531.402 489.47 531.337C490.501 531.273 491.5 531.176 492.467 531.047C493.466 530.886 494.336 530.677 495.077 530.419C495.851 530.129 496.334 529.71 496.527 529.162ZM570.246 552.704C570.342 553.993 570.471 555.185 570.632 556.281C570.826 557.376 570.922 558.392 570.922 559.326C570.922 560.1 570.793 560.857 570.536 561.598C570.31 562.339 569.891 562.984 569.279 563.532C568.699 564.112 567.909 564.579 566.91 564.934C565.943 565.288 564.719 565.465 563.236 565.465C561.238 565.465 559.659 565.353 558.499 565.127C557.371 564.901 556.533 564.515 555.985 563.967C555.438 563.419 555.099 562.71 554.97 561.84C554.841 560.97 554.777 559.874 554.777 558.553C554.777 558.005 554.793 557.441 554.825 556.861C554.89 556.281 554.954 555.685 555.019 555.072C553.762 555.427 552.457 555.749 551.103 556.039C549.782 556.297 548.203 556.603 546.366 556.958C545.721 557.054 545.109 557.28 544.529 557.634C543.949 557.989 543.385 558.166 542.837 558.166C542.482 558.166 542.096 558.118 541.677 558.021C541.29 557.924 540.919 557.876 540.565 557.876C539.727 557.876 538.857 558.021 537.955 558.311C537.084 558.601 536.327 558.746 535.683 558.746C535.103 558.746 534.442 558.601 533.701 558.311C532.992 558.021 532.138 557.876 531.139 557.876H529.447C528.158 557.876 526.885 557.586 525.628 557.006C524.371 556.426 523.243 555.781 522.244 555.072C521.245 554.331 520.423 553.638 519.779 552.994C519.167 552.317 518.86 551.898 518.86 551.737C518.796 551.64 518.731 551.366 518.667 550.915C518.603 550.464 518.538 549.98 518.474 549.465C518.441 548.949 518.393 548.466 518.329 548.015C518.296 547.563 518.28 547.273 518.28 547.145C518.216 546.661 518.184 546.178 518.184 545.694C518.184 545.211 518.184 544.744 518.184 544.292C518.184 543.326 518.216 542.407 518.28 541.537C518.345 540.635 518.425 539.732 518.522 538.83C518.619 537.928 518.699 537.009 518.764 536.075C518.828 535.14 518.86 534.157 518.86 533.126C518.86 532.61 518.844 532.095 518.812 531.579C518.78 531.031 518.764 530.483 518.764 529.936C518.764 529.484 518.796 529.114 518.86 528.824C518.957 528.501 519.054 528.211 519.15 527.954C519.247 527.696 519.344 527.454 519.44 527.229C519.569 526.971 519.666 526.681 519.73 526.358C519.892 525.972 519.94 525.537 519.875 525.053C519.843 524.538 519.94 524.054 520.166 523.603C520.23 523.345 520.359 523.087 520.552 522.83C520.778 522.54 521.02 522.233 521.277 521.911C521.567 521.589 521.841 521.267 522.099 520.944C522.389 520.622 522.631 520.284 522.824 519.929C523.114 519.414 523.34 518.914 523.501 518.431C523.694 517.915 523.872 517.448 524.033 517.029C524.194 516.578 524.371 516.191 524.564 515.869C524.758 515.514 525 515.256 525.29 515.095C525.483 514.966 525.805 514.854 526.256 514.757C526.708 514.66 527.207 514.563 527.755 514.467C528.303 514.338 528.867 514.225 529.447 514.128C530.059 514.032 530.623 513.919 531.139 513.79C532.589 513.436 534.345 513.146 536.408 512.92C538.502 512.662 540.549 512.533 542.547 512.533C543.965 512.533 545.222 512.678 546.317 512.968C547.413 513.258 548.428 513.597 549.363 513.983C550.33 514.338 551.248 514.708 552.118 515.095C553.021 515.482 553.987 515.772 555.019 515.965C555.18 514.741 555.292 513.258 555.357 511.518C555.454 509.778 555.502 507.989 555.502 506.152C555.502 505.186 555.454 504.219 555.357 503.252C555.292 502.285 555.196 501.351 555.067 500.448C554.97 499.514 554.874 498.66 554.777 497.886C554.712 497.081 554.68 496.372 554.68 495.759C554.68 495.34 554.793 494.825 555.019 494.212C555.244 493.568 555.55 492.972 555.937 492.424C556.356 491.844 556.839 491.36 557.387 490.974C557.967 490.555 558.596 490.345 559.272 490.345C559.788 490.345 560.336 490.458 560.916 490.684C561.496 490.877 562.028 491.135 562.511 491.457C562.995 491.747 563.397 492.102 563.72 492.521C564.042 492.907 564.203 493.294 564.203 493.681C564.203 494.1 564.139 494.519 564.01 494.938C563.881 495.356 563.816 495.84 563.816 496.388C563.881 496.871 564.058 497.403 564.348 497.983C564.67 498.563 564.88 499.143 564.977 499.723C565.17 500.464 565.267 501.479 565.267 502.769C565.299 504.058 565.315 505.492 565.315 507.071C565.347 508.618 565.396 510.245 565.46 511.953C565.524 513.661 565.702 515.305 565.992 516.884C566.088 517.464 566.25 517.979 566.475 518.431C566.733 518.85 566.991 519.285 567.249 519.736C567.539 520.155 567.78 520.622 567.974 521.138C568.167 521.621 568.264 522.217 568.264 522.926C568.264 523.506 568.231 524.135 568.167 524.812C568.103 525.456 568.07 526.181 568.07 526.987C568.167 528.856 568.296 530.854 568.457 532.981C568.618 535.076 568.795 537.235 568.989 539.458C569.214 541.682 569.424 543.922 569.617 546.178C569.843 548.401 570.052 550.577 570.246 552.704ZM555.889 528.824C555.728 528.63 555.389 528.518 554.874 528.485C554.39 528.421 553.81 528.389 553.133 528.389C552.457 528.356 551.715 528.324 550.91 528.292C550.104 528.228 549.314 528.115 548.541 527.954C548.09 527.857 547.719 527.744 547.429 527.615C547.171 527.486 546.93 527.374 546.704 527.277C546.479 527.148 546.237 527.051 545.979 526.987C545.721 526.89 545.399 526.842 545.012 526.842C543.788 526.842 542.595 526.922 541.435 527.083C540.307 527.212 539.421 527.502 538.776 527.954C538.454 528.211 538.132 528.695 537.81 529.404C537.52 530.113 537.262 530.967 537.036 531.966C536.811 532.965 536.633 534.028 536.504 535.156C536.375 536.284 536.311 537.38 536.311 538.443C536.311 540.538 536.553 542.021 537.036 542.891C537.552 543.761 538.486 544.196 539.84 544.196C540.452 544.196 541.097 544.131 541.773 544.002C542.45 543.841 543.111 543.68 543.755 543.519C544.432 543.326 545.044 543.148 545.592 542.987C546.14 542.794 546.607 542.665 546.994 542.601C547.349 542.568 547.977 542.504 548.879 542.407C549.782 542.278 550.7 542.149 551.635 542.021C552.602 541.859 553.472 541.698 554.245 541.537C555.019 541.376 555.47 541.199 555.599 541.005C555.695 540.909 555.76 540.683 555.792 540.329C555.856 539.974 555.889 539.571 555.889 539.12C555.889 538.701 555.873 538.25 555.84 537.767C555.808 537.251 555.776 536.784 555.744 536.365C555.711 535.914 555.679 535.527 555.647 535.205C555.615 534.882 555.599 534.673 555.599 534.576C555.599 534.544 555.631 534.383 555.695 534.093C555.76 533.803 555.824 533.448 555.889 533.029C555.953 532.61 556.018 532.159 556.082 531.676C556.146 531.192 556.179 530.741 556.179 530.322C556.179 529.678 556.082 529.178 555.889 528.824Z" fill="#BAFF44"/>
</svg>
